<?xml version="1.0" encoding="utf-8"?>
<!-- Generator: Adobe Illustrator 27.0.0, SVG Export Plug-In . SVG Version: 6.00 Build 0)  -->
<svg version="1.1" id="Layer_1" xmlns="http://www.w3.org/2000/svg" xmlns:xlink="http://www.w3.org/1999/xlink" x="0px" y="0px"
	 viewBox="0 0 1666 768" style="enable-background:new 0 0 1666 768;" xml:space="preserve">
<style type="text/css">
	.st0{fill:#333333;stroke:#333333;stroke-miterlimit:10;}
	.st1{fill:#333333;}
</style>
<line class="st0" x1="1301.42" y1="-38.6" x2="1366.57" y2="26.49"/>
<line class="st0" x1="1364.91" y1="38.67" x2="1299.82" y2="103.82"/>
<line class="st0" x1="1221.11" y1="40.36" x2="1286.26" y2="105.45"/>
<line class="st0" x1="1144.23" y1="-38.6" x2="1209.38" y2="26.49"/>
<line class="st0" x1="1208.57" y1="39.53" x2="1143.48" y2="104.68"/>
<line class="st0" x1="1287.86" y1="-36.97" x2="1222.77" y2="28.17"/>
<line class="st0" x1="987.04" y1="-40.31" x2="1052.19" y2="24.78"/>
<line class="st0" x1="1050.53" y1="36.97" x2="985.44" y2="102.11"/>
<line class="st0" x1="1130.67" y1="-38.68" x2="1065.58" y2="26.47"/>
<line class="st0" x1="906.73" y1="38.65" x2="971.88" y2="103.74"/>
<line class="st0" x1="1064.78" y1="37.8" x2="1129.92" y2="102.89"/>
<line class="st0" x1="829.85" y1="-40.31" x2="895" y2="24.78"/>
<line class="st0" x1="893.34" y1="36.97" x2="828.25" y2="102.11"/>
<line class="st0" x1="973.48" y1="-38.68" x2="908.4" y2="26.47"/>
<line class="st0" x1="750.4" y1="37.8" x2="815.55" y2="102.89"/>
<line class="st0" x1="673.52" y1="-41.16" x2="738.67" y2="23.92"/>
<line class="st0" x1="737.01" y1="36.11" x2="671.92" y2="101.26"/>
<line class="st0" x1="817.15" y1="-39.54" x2="752.06" y2="25.61"/>
<line class="st0" x1="594.07" y1="36.94" x2="659.21" y2="102.03"/>
<line class="st0" x1="517.18" y1="-42.02" x2="582.33" y2="23.07"/>
<line class="st0" x1="580.67" y1="35.26" x2="515.58" y2="100.4"/>
<line class="st0" x1="660.81" y1="-40.39" x2="595.73" y2="24.76"/>
<line class="st0" x1="437.73" y1="36.09" x2="502.88" y2="101.18"/>
<line class="st0" x1="360.85" y1="-42.87" x2="426" y2="22.22"/>
<line class="st0" x1="424.34" y1="34.4" x2="359.25" y2="99.55"/>
<line class="st0" x1="504.48" y1="-41.24" x2="439.39" y2="23.9"/>
<line class="st0" x1="281.4" y1="35.24" x2="346.54" y2="100.32"/>
<line class="st0" x1="348.14" y1="-42.1" x2="283.06" y2="23.05"/>
<line class="st0" x1="1298" y1="116.88" x2="1363.15" y2="181.97"/>
<line class="st0" x1="1361.49" y1="194.15" x2="1296.4" y2="259.3"/>
<line class="st0" x1="1217.69" y1="195.84" x2="1282.84" y2="260.93"/>
<line class="st0" x1="1140.81" y1="116.88" x2="1205.96" y2="181.97"/>
<line class="st0" x1="1205.15" y1="195.01" x2="1140.07" y2="260.16"/>
<line class="st0" x1="1284.44" y1="118.51" x2="1219.36" y2="183.65"/>
<line class="st0" x1="983.63" y1="115.17" x2="1048.77" y2="180.26"/>
<line class="st0" x1="1047.11" y1="192.45" x2="982.02" y2="257.59"/>
<line class="st0" x1="1127.26" y1="116.8" x2="1062.17" y2="181.95"/>
<line class="st0" x1="903.32" y1="194.13" x2="968.46" y2="259.22"/>
<line class="st0" x1="1061.36" y1="193.28" x2="1126.51" y2="258.37"/>
<line class="st0" x1="826.44" y1="115.17" x2="891.58" y2="180.26"/>
<line class="st0" x1="889.92" y1="192.45" x2="824.83" y2="257.59"/>
<line class="st0" x1="970.07" y1="116.8" x2="904.98" y2="181.95"/>
<line class="st0" x1="746.98" y1="193.28" x2="812.13" y2="258.37"/>
<line class="st0" x1="670.1" y1="114.32" x2="735.25" y2="179.41"/>
<line class="st0" x1="733.59" y1="191.59" x2="668.5" y2="256.74"/>
<line class="st0" x1="813.73" y1="115.94" x2="748.64" y2="181.09"/>
<line class="st0" x1="590.65" y1="192.42" x2="655.8" y2="257.51"/>
<line class="st0" x1="513.77" y1="113.46" x2="578.91" y2="178.55"/>
<line class="st0" x1="577.25" y1="190.74" x2="512.17" y2="255.88"/>
<line class="st0" x1="657.4" y1="115.09" x2="592.31" y2="180.24"/>
<line class="st0" x1="434.31" y1="191.57" x2="499.46" y2="256.66"/>
<line class="st0" x1="357.43" y1="112.61" x2="422.58" y2="177.7"/>
<line class="st0" x1="420.92" y1="189.88" x2="355.83" y2="255.03"/>
<line class="st0" x1="501.06" y1="114.24" x2="435.97" y2="179.38"/>
<line class="st0" x1="277.98" y1="190.72" x2="343.13" y2="255.8"/>
<line class="st0" x1="344.73" y1="113.38" x2="279.64" y2="178.53"/>
<line class="st0" x1="1294.59" y1="272.36" x2="1359.73" y2="337.45"/>
<line class="st0" x1="1358.07" y1="349.63" x2="1292.98" y2="414.78"/>
<line class="st0" x1="1214.28" y1="351.32" x2="1279.42" y2="416.41"/>
<line class="st0" x1="1137.4" y1="272.36" x2="1202.54" y2="337.45"/>
<line class="st0" x1="1201.74" y1="350.49" x2="1136.65" y2="415.64"/>
<line class="st0" x1="1281.03" y1="273.99" x2="1215.94" y2="339.14"/>
<line class="st0" x1="980.21" y1="270.65" x2="1045.36" y2="335.74"/>
<line class="st0" x1="1043.69" y1="347.93" x2="978.61" y2="413.07"/>
<line class="st0" x1="1123.84" y1="272.28" x2="1058.75" y2="337.43"/>
<line class="st0" x1="899.9" y1="349.61" x2="965.05" y2="414.7"/>
<line class="st0" x1="1057.94" y1="348.76" x2="1123.09" y2="413.85"/>
<line class="st0" x1="823.02" y1="270.65" x2="888.17" y2="335.74"/>
<line class="st0" x1="886.51" y1="347.93" x2="821.42" y2="413.07"/>
<line class="st0" x1="966.65" y1="272.28" x2="901.56" y2="337.43"/>
<line class="st0" x1="743.57" y1="348.76" x2="808.71" y2="413.85"/>
<line class="st0" x1="666.68" y1="269.8" x2="731.83" y2="334.89"/>
<line class="st0" x1="730.17" y1="347.07" x2="665.08" y2="412.22"/>
<line class="st0" x1="810.31" y1="271.43" x2="745.23" y2="336.57"/>
<line class="st0" x1="587.23" y1="347.9" x2="652.38" y2="412.99"/>
<line class="st0" x1="510.35" y1="268.94" x2="575.5" y2="334.03"/>
<line class="st0" x1="573.84" y1="346.22" x2="508.75" y2="411.36"/>
<line class="st0" x1="653.98" y1="270.57" x2="588.89" y2="335.72"/>
<line class="st0" x1="430.9" y1="347.05" x2="496.04" y2="412.14"/>
<line class="st0" x1="354.02" y1="268.09" x2="419.16" y2="333.18"/>
<line class="st0" x1="417.5" y1="345.36" x2="352.41" y2="410.51"/>
<line class="st0" x1="497.65" y1="269.72" x2="432.56" y2="334.86"/>
<line class="st0" x1="274.56" y1="346.2" x2="339.71" y2="411.28"/>
<line class="st0" x1="341.31" y1="268.86" x2="276.22" y2="334.01"/>
<line class="st0" x1="1291.17" y1="427.84" x2="1356.32" y2="492.93"/>
<line class="st0" x1="1354.66" y1="505.12" x2="1289.57" y2="570.26"/>
<line class="st0" x1="1210.86" y1="506.8" x2="1276.01" y2="571.89"/>
<line class="st0" x1="1133.98" y1="427.84" x2="1199.13" y2="492.93"/>
<line class="st0" x1="1198.32" y1="505.97" x2="1133.23" y2="571.12"/>
<line class="st0" x1="1277.61" y1="429.47" x2="1212.52" y2="494.62"/>
<line class="st0" x1="976.79" y1="426.13" x2="1041.94" y2="491.22"/>
<line class="st0" x1="1040.28" y1="503.41" x2="975.19" y2="568.55"/>
<line class="st0" x1="1120.42" y1="427.76" x2="1055.33" y2="492.91"/>
<line class="st0" x1="896.48" y1="505.09" x2="961.63" y2="570.18"/>
<line class="st0" x1="1054.53" y1="504.24" x2="1119.67" y2="569.33"/>
<line class="st0" x1="819.6" y1="426.13" x2="884.75" y2="491.22"/>
<line class="st0" x1="883.09" y1="503.41" x2="818" y2="568.55"/>
<line class="st0" x1="963.23" y1="427.76" x2="898.14" y2="492.91"/>
<line class="st0" x1="740.15" y1="504.24" x2="805.3" y2="569.33"/>
<line class="st0" x1="663.27" y1="425.28" x2="728.41" y2="490.37"/>
<line class="st0" x1="726.75" y1="502.55" x2="661.67" y2="567.7"/>
<line class="st0" x1="806.9" y1="426.91" x2="741.81" y2="492.05"/>
<line class="st0" x1="583.81" y1="503.38" x2="648.96" y2="568.47"/>
<line class="st0" x1="506.93" y1="424.42" x2="572.08" y2="489.51"/>
<line class="st0" x1="570.42" y1="501.7" x2="505.33" y2="566.85"/>
<line class="st0" x1="650.56" y1="426.05" x2="585.47" y2="491.2"/>
<line class="st0" x1="427.48" y1="502.53" x2="492.63" y2="567.62"/>
<line class="st0" x1="350.6" y1="423.57" x2="415.75" y2="488.66"/>
<line class="st0" x1="414.08" y1="500.84" x2="349" y2="565.99"/>
<line class="st0" x1="494.23" y1="425.2" x2="429.14" y2="490.34"/>
<line class="st0" x1="271.14" y1="501.68" x2="336.29" y2="566.76"/>
<line class="st0" x1="337.89" y1="424.34" x2="272.81" y2="489.49"/>
<line class="st0" x1="1287.75" y1="583.32" x2="1352.9" y2="648.41"/>
<line class="st0" x1="1351.24" y1="660.6" x2="1286.15" y2="725.74"/>
<line class="st0" x1="1207.44" y1="662.28" x2="1272.59" y2="727.37"/>
<line class="st0" x1="1130.56" y1="583.32" x2="1195.71" y2="648.41"/>
<line class="st0" x1="1194.9" y1="661.45" x2="1129.82" y2="726.6"/>
<line class="st0" x1="1274.19" y1="584.95" x2="1209.1" y2="650.1"/>
<line class="st0" x1="973.37" y1="581.61" x2="1038.52" y2="646.7"/>
<line class="st0" x1="1036.86" y1="658.89" x2="971.77" y2="724.03"/>
<line class="st0" x1="1117" y1="583.24" x2="1051.92" y2="648.39"/>
<line class="st0" x1="893.07" y1="660.57" x2="958.21" y2="725.66"/>
<line class="st0" x1="1051.11" y1="659.72" x2="1116.26" y2="724.81"/>
<line class="st0" x1="816.19" y1="581.61" x2="881.33" y2="646.7"/>
<line class="st0" x1="879.67" y1="658.89" x2="814.58" y2="724.03"/>
<line class="st0" x1="959.81" y1="583.24" x2="894.73" y2="648.39"/>
<line class="st0" x1="736.73" y1="659.72" x2="801.88" y2="724.81"/>
<line class="st0" x1="659.85" y1="580.76" x2="725" y2="645.85"/>
<line class="st0" x1="723.34" y1="658.03" x2="658.25" y2="723.18"/>
<line class="st0" x1="803.48" y1="582.39" x2="738.39" y2="647.53"/>
<line class="st0" x1="580.4" y1="658.87" x2="645.54" y2="723.95"/>
<line class="st0" x1="503.52" y1="579.9" x2="568.66" y2="644.99"/>
<line class="st0" x1="567" y1="657.18" x2="501.91" y2="722.33"/>
<line class="st0" x1="647.15" y1="581.53" x2="582.06" y2="646.68"/>
<line class="st0" x1="424.06" y1="658.01" x2="489.21" y2="723.1"/>
<line class="st0" x1="347.18" y1="579.05" x2="412.33" y2="644.14"/>
<line class="st0" x1="410.67" y1="656.32" x2="345.58" y2="721.47"/>
<line class="st0" x1="490.81" y1="580.68" x2="425.72" y2="645.82"/>
<line class="st0" x1="267.73" y1="657.16" x2="332.87" y2="722.24"/>
<line class="st0" x1="334.48" y1="579.82" x2="269.39" y2="644.97"/>
<line class="st0" x1="1284.33" y1="738.8" x2="1349.48" y2="803.89"/>
<line class="st0" x1="1127.15" y1="738.8" x2="1192.29" y2="803.89"/>
<line class="st0" x1="1270.78" y1="740.43" x2="1205.69" y2="805.58"/>
<line class="st0" x1="969.96" y1="737.09" x2="1035.1" y2="802.18"/>
<line class="st0" x1="1113.59" y1="738.72" x2="1048.5" y2="803.87"/>
<line class="st0" x1="812.77" y1="737.09" x2="877.92" y2="802.18"/>
<line class="st0" x1="956.4" y1="738.72" x2="891.31" y2="803.87"/>
<line class="st0" x1="656.43" y1="736.24" x2="721.58" y2="801.33"/>
<line class="st0" x1="800.06" y1="737.87" x2="734.98" y2="803.01"/>
<line class="st0" x1="500.1" y1="735.38" x2="565.25" y2="800.47"/>
<line class="st0" x1="643.73" y1="737.01" x2="578.64" y2="802.16"/>
<g>
	<path class="st1" d="M893.82,351.4c-5.05-0.11-9.08-4.3-8.97-9.36c0.1-4.95,4.21-8.97,9.16-8.97l0.2,0
		c5.05,0.11,9.08,4.3,8.97,9.36c-0.1,4.95-4.21,8.97-9.16,8.97L893.82,351.4z"/>
	<path class="st1" d="M894.01,332.57v1l0.19,0c4.78,0.1,8.58,4.07,8.48,8.85c-0.1,4.68-3.98,8.48-8.66,8.48l-0.19,0
		c-4.78-0.1-8.58-4.07-8.48-8.85c0.1-4.68,3.98-8.48,8.66-8.48L894.01,332.57 M894.01,332.57c-5.24,0-9.55,4.19-9.66,9.46
		c-0.11,5.34,4.12,9.75,9.46,9.87c0.07,0,0.14,0,0.21,0c5.24,0,9.55-4.19,9.66-9.46c0.11-5.34-4.12-9.75-9.46-9.87
		C894.15,332.57,894.08,332.57,894.01,332.57L894.01,332.57z"/>
</g>
<g>
	<path class="st1" d="M815.77,273.81c-5.05-0.11-9.08-4.3-8.97-9.36c0.1-4.95,4.21-8.97,9.16-8.97l0.2,0
		c2.45,0.05,4.73,1.05,6.42,2.82c1.69,1.77,2.6,4.09,2.55,6.54c-0.1,4.95-4.21,8.97-9.16,8.97L815.77,273.81z"/>
	<path class="st1" d="M815.96,255.98L815.96,255.98l0.19,0c2.31,0.05,4.47,1,6.07,2.67c1.6,1.67,2.46,3.87,2.41,6.18
		c-0.1,4.68-3.98,8.48-8.66,8.48l-0.19,0c-4.78-0.1-8.58-4.07-8.48-8.85C807.4,259.79,811.28,255.98,815.96,255.98 M815.96,254.98
		c-5.24,0-9.55,4.19-9.66,9.46c-0.11,5.34,4.12,9.75,9.46,9.87c0.07,0,0.14,0,0.21,0c5.24,0,9.55-4.19,9.66-9.46
		c0.11-5.34-4.12-9.75-9.46-9.87C816.1,254.98,816.03,254.98,815.96,254.98L815.96,254.98z"/>
</g>
<g>
	<path class="st1" d="M972.96,273.81c-2.45-0.05-4.73-1.05-6.42-2.82c-1.69-1.77-2.6-4.09-2.55-6.54c0.1-4.95,4.21-8.97,9.16-8.97
		l0.2,0c5.05,0.11,9.08,4.3,8.97,9.36c-0.1,4.95-4.21,8.97-9.16,8.97L972.96,273.81z"/>
	<path class="st1" d="M973.15,255.98L973.15,255.98l0.19,0c4.78,0.1,8.58,4.07,8.48,8.85c-0.1,4.68-3.98,8.48-8.66,8.48l-0.19,0
		c-2.31-0.05-4.47-1-6.07-2.67c-1.6-1.67-2.46-3.87-2.41-6.18C964.59,259.79,968.47,255.98,973.15,255.98 M973.15,254.98
		c-5.24,0-9.55,4.19-9.66,9.46c-0.11,5.34,4.12,9.75,9.46,9.87c0.07,0,0.14,0,0.21,0c5.24,0,9.55-4.19,9.66-9.46
		c0.11-5.34-4.12-9.75-9.46-9.87C973.29,254.98,973.22,254.98,973.15,254.98L973.15,254.98z"/>
</g>
<g>
	<path class="st1" d="M737.49,350.55c-2.45-0.05-4.73-1.05-6.42-2.82s-2.6-4.09-2.55-6.54c0.1-4.95,4.21-8.97,9.16-8.97l0.2,0
		c2.45,0.05,4.73,1.05,6.42,2.82c1.69,1.77,2.6,4.09,2.55,6.54c-0.1,4.95-4.21,8.97-9.16,8.97L737.49,350.55z"/>
	<path class="st1" d="M737.68,332.72L737.68,332.72l0.19,0c2.31,0.05,4.47,1,6.07,2.67c1.6,1.67,2.46,3.87,2.41,6.18
		c-0.1,4.68-3.98,8.48-8.66,8.48l-0.19,0c-4.78-0.1-8.58-4.07-8.48-8.85C729.11,336.52,733,332.72,737.68,332.72 M737.67,331.72
		c-5.24,0-9.55,4.19-9.66,9.46c-0.11,5.34,4.12,9.75,9.46,9.87c0.07,0,0.14,0,0.21,0c5.24,0,9.55-4.19,9.66-9.46
		c0.11-5.34-4.12-9.75-9.46-9.87C737.81,331.72,737.74,331.72,737.67,331.72L737.67,331.72z"/>
</g>
<g>
	<path class="st1" d="M659.44,272.96c-5.05-0.11-9.08-4.3-8.97-9.36c0.1-4.95,4.21-8.97,9.16-8.97l0.2,0
		c5.05,0.11,9.08,4.3,8.97,9.36c-0.1,4.95-4.21,8.97-9.16,8.97L659.44,272.96z"/>
	<path class="st1" d="M659.62,255.13L659.62,255.13l0.19,0c2.31,0.05,4.47,1,6.07,2.67s2.46,3.87,2.41,6.18
		c-0.1,4.68-3.98,8.48-8.66,8.48l-0.19,0c-2.31-0.05-4.47-1-6.07-2.67c-1.6-1.67-2.46-3.87-2.41-6.18
		C651.06,258.93,654.95,255.13,659.62,255.13 M659.62,254.13c-5.24,0-9.55,4.19-9.66,9.46c-0.11,5.34,4.12,9.75,9.46,9.87
		c0.07,0,0.14,0,0.21,0c5.24,0,9.55-4.19,9.66-9.46c0.11-5.34-4.12-9.75-9.46-9.87C659.76,254.13,659.69,254.13,659.62,254.13
		L659.62,254.13z"/>
</g>
<g>
	<path class="st1" d="M581.15,349.69c-5.05-0.11-9.08-4.3-8.97-9.36c0.1-4.95,4.21-8.97,9.16-8.97l0.2,0
		c2.45,0.05,4.73,1.05,6.42,2.82c1.69,1.77,2.6,4.09,2.55,6.54c-0.1,4.95-4.21,8.97-9.16,8.97L581.15,349.69z"/>
	<path class="st1" d="M581.34,331.86L581.34,331.86l0.19,0c2.31,0.05,4.47,1,6.07,2.67c1.6,1.67,2.46,3.87,2.41,6.18
		c-0.1,4.68-3.98,8.48-8.66,8.48l-0.19,0c-4.78-0.1-8.58-4.07-8.48-8.85C572.78,335.67,576.66,331.86,581.34,331.86 M581.34,330.86
		c-5.24,0-9.55,4.19-9.66,9.46c-0.11,5.34,4.12,9.75,9.46,9.87c0.07,0,0.14,0,0.21,0c5.24,0,9.55-4.19,9.66-9.46
		c0.11-5.34-4.12-9.75-9.46-9.87C581.48,330.87,581.41,330.86,581.34,330.86L581.34,330.86z"/>
</g>
<g>
	<path class="st1" d="M503.1,272.1c-5.05-0.11-9.08-4.3-8.97-9.36c0.1-4.95,4.21-8.97,9.16-8.97l0.2,0
		c2.45,0.05,4.73,1.05,6.42,2.82s2.6,4.09,2.55,6.54c-0.1,4.95-4.21,8.97-9.16,8.97L503.1,272.1z"/>
	<path class="st1" d="M503.29,254.27L503.29,254.27l0.19,0c4.78,0.1,8.58,4.07,8.48,8.85c-0.1,4.68-3.98,8.48-8.66,8.48l-0.19,0
		c-4.78-0.1-8.58-4.07-8.48-8.85C494.73,258.08,498.61,254.27,503.29,254.27 M503.29,253.27c-5.24,0-9.55,4.19-9.66,9.46
		c-0.11,5.34,4.12,9.75,9.46,9.87c0.07,0,0.14,0,0.21,0c5.24,0,9.55-4.19,9.66-9.46c0.11-5.34-4.12-9.75-9.46-9.87
		C503.43,253.27,503.36,253.27,503.29,253.27L503.29,253.27z"/>
</g>
<g>
	<path class="st1" d="M1051.01,351.4c-5.05-0.11-9.08-4.3-8.97-9.36c0.1-4.95,4.21-8.97,9.16-8.97l0.2,0
		c2.45,0.05,4.73,1.05,6.42,2.82c1.69,1.77,2.6,4.09,2.55,6.54c-0.1,4.95-4.21,8.97-9.16,8.97L1051.01,351.4z"/>
	<path class="st1" d="M1051.2,332.57v1l0.19,0c4.78,0.1,8.58,4.07,8.48,8.85c-0.1,4.68-3.98,8.48-8.66,8.48l-0.19,0
		c-4.78-0.1-8.58-4.07-8.48-8.85c0.1-4.68,3.98-8.48,8.66-8.48L1051.2,332.57 M1051.2,332.57c-5.24,0-9.55,4.19-9.66,9.46
		c-0.11,5.34,4.12,9.75,9.46,9.87c0.07,0,0.14,0,0.21,0c5.24,0,9.55-4.19,9.66-9.46c0.11-5.34-4.12-9.75-9.46-9.87
		C1051.34,332.57,1051.27,332.57,1051.2,332.57L1051.2,332.57z"/>
</g>
<g>
	<path class="st1" d="M424.82,348.84c-5.05-0.11-9.08-4.3-8.97-9.36c0.1-4.95,4.21-8.97,9.16-8.97l0.2,0
		c5.05,0.11,9.08,4.3,8.97,9.36c-0.1,4.95-4.21,8.97-9.16,8.97L424.82,348.84z"/>
	<path class="st1" d="M425.01,330.01v1l0.19,0c4.78,0.1,8.58,4.07,8.48,8.85c-0.1,4.68-3.98,8.48-8.66,8.48l-0.19,0
		c-2.31-0.05-4.47-1-6.07-2.67c-1.6-1.67-2.46-3.87-2.41-6.18c0.1-4.68,3.98-8.48,8.66-8.48L425.01,330.01 M425.01,330.01
		c-5.24,0-9.55,4.19-9.66,9.46c-0.11,5.34,4.12,9.75,9.46,9.87c0.07,0,0.14,0,0.21,0c5.24,0,9.55-4.19,9.66-9.46
		c0.11-5.34-4.12-9.75-9.46-9.87C425.14,330.01,425.08,330.01,425.01,330.01L425.01,330.01z"/>
</g>
<g>
	<path class="st1" d="M346.77,271.25c-2.45-0.05-4.73-1.05-6.42-2.82c-1.69-1.77-2.6-4.09-2.55-6.54c0.1-4.95,4.21-8.97,9.16-8.97
		l0.2,0c5.05,0.11,9.08,4.3,8.97,9.36c-0.1,4.95-4.21,8.97-9.16,8.97L346.77,271.25z"/>
	<path class="st1" d="M346.96,253.42L346.96,253.42l0.19,0c2.31,0.05,4.47,1,6.07,2.67c1.6,1.67,2.46,3.87,2.41,6.18
		c-0.1,4.68-3.98,8.48-8.66,8.48l-0.19,0c-4.78-0.1-8.58-4.07-8.48-8.85C338.39,257.22,342.28,253.42,346.96,253.42 M346.96,252.42
		c-5.24,0-9.55,4.19-9.66,9.46c-0.11,5.34,4.12,9.75,9.46,9.87c0.07,0,0.14,0,0.21,0c5.24,0,9.55-4.19,9.66-9.46
		c0.11-5.34-4.12-9.75-9.46-9.87C347.09,252.42,347.02,252.42,346.96,252.42L346.96,252.42z"/>
</g>
<g>
	<path class="st1" d="M1208.2,353.11c-2.45-0.05-4.73-1.05-6.42-2.82c-1.69-1.77-2.6-4.09-2.55-6.54c0.1-4.95,4.21-8.97,9.16-8.97
		l0.2,0c5.05,0.11,9.08,4.3,8.97,9.36c-0.1,4.95-4.21,8.97-9.16,8.97L1208.2,353.11z"/>
	<path class="st1" d="M1208.39,335.28L1208.39,335.28l0.19,0c2.31,0.05,4.47,1,6.07,2.67c1.6,1.67,2.46,3.87,2.41,6.18
		c-0.1,4.68-3.98,8.48-8.66,8.48l-0.19,0c-4.78-0.1-8.58-4.07-8.48-8.85C1199.83,339.09,1203.71,335.28,1208.39,335.28
		 M1208.39,334.28c-5.24,0-9.55,4.19-9.66,9.46c-0.11,5.34,4.12,9.75,9.46,9.87c0.07,0,0.14,0,0.21,0c5.24,0,9.55-4.19,9.66-9.46
		c0.11-5.34-4.12-9.75-9.46-9.87C1208.53,334.28,1208.46,334.28,1208.39,334.28L1208.39,334.28z"/>
</g>
<g>
	<path class="st1" d="M1131,274.66c-5.05-0.11-9.08-4.3-8.97-9.36c0.1-4.95,4.21-8.97,9.16-8.97l0.2,0c5.05,0.11,9.08,4.3,8.97,9.36
		c-0.1,4.95-4.21,8.97-9.16,8.97L1131,274.66z"/>
	<path class="st1" d="M1131.19,256.84L1131.19,256.84l0.19,0c2.31,0.05,4.47,1,6.07,2.67c1.6,1.67,2.46,3.87,2.41,6.18
		c-0.1,4.68-3.98,8.48-8.66,8.48l-0.19,0c-4.78-0.1-8.58-4.07-8.48-8.85C1122.63,260.64,1126.52,256.84,1131.19,256.84
		 M1131.19,255.84c-5.24,0-9.55,4.19-9.66,9.46c-0.11,5.34,4.12,9.75,9.46,9.87c0.07,0,0.14,0,0.21,0c5.24,0,9.55-4.19,9.66-9.46
		c0.11-5.34-4.12-9.75-9.46-9.87C1131.33,255.84,1131.26,255.84,1131.19,255.84L1131.19,255.84z"/>
</g>
<g>
	<path class="st1" d="M1361.97,508.59c-2.45-0.05-4.73-1.05-6.42-2.82c-1.69-1.77-2.6-4.09-2.55-6.54c0.1-4.95,4.21-8.97,9.16-8.97
		l0.2,0c5.05,0.11,9.08,4.3,8.97,9.36c-0.1,4.95-4.21,8.97-9.16,8.97L1361.97,508.59z"/>
	<path class="st1" d="M1362.16,490.76L1362.16,490.76l0.19,0c2.31,0.05,4.47,1,6.07,2.67c1.6,1.67,2.46,3.87,2.41,6.18
		c-0.1,4.68-3.98,8.48-8.66,8.48l-0.19,0c-2.31-0.05-4.47-1-6.07-2.67c-1.6-1.67-2.46-3.87-2.41-6.18
		C1353.6,494.57,1357.48,490.76,1362.16,490.76 M1362.16,489.76c-5.24,0-9.55,4.19-9.66,9.46c-0.11,5.34,4.12,9.75,9.46,9.87
		c0.07,0,0.14,0,0.21,0c5.24,0,9.55-4.19,9.66-9.46c0.11-5.34-4.12-9.75-9.46-9.87C1362.3,489.76,1362.23,489.76,1362.16,489.76
		L1362.16,489.76z"/>
</g>
<g>
	<path class="st1" d="M1283.92,431c-2.45-0.05-4.73-1.05-6.42-2.82s-2.6-4.09-2.55-6.54c0.1-4.95,4.21-8.97,9.16-8.97l0.2,0
		c5.05,0.11,9.08,4.3,8.97,9.36c-0.1,4.95-4.21,8.97-9.16,8.97L1283.92,431z"/>
	<path class="st1" d="M1284.11,412.17v1l0.19,0c4.78,0.1,8.58,4.07,8.48,8.85c-0.1,4.68-3.98,8.48-8.66,8.48l-0.19,0
		c-2.31-0.05-4.47-1-6.07-2.67s-2.46-3.87-2.41-6.18c0.1-4.68,3.98-8.48,8.66-8.48L1284.11,412.17 M1284.11,412.17
		c-5.24,0-9.55,4.19-9.66,9.46c-0.11,5.34,4.12,9.75,9.46,9.87c0.07,0,0.14,0,0.21,0c5.24,0,9.55-4.19,9.66-9.46
		c0.11-5.34-4.12-9.75-9.46-9.87C1284.25,412.17,1284.18,412.17,1284.11,412.17L1284.11,412.17z"/>
</g>
<g>
	<path class="st1" d="M1372.22,42.15c-2.45-0.05-4.73-1.05-6.42-2.82c-1.69-1.77-2.6-4.09-2.55-6.54c0.1-4.95,4.21-8.97,9.16-8.97
		l0.2,0c2.45,0.05,4.73,1.05,6.42,2.82c1.69,1.77,2.6,4.09,2.55,6.54c-0.1,4.95-4.21,8.97-9.16,8.97L1372.22,42.15z"/>
	<path class="st1" d="M1372.41,24.32L1372.41,24.32l0.19,0c2.31,0.05,4.47,1,6.07,2.67c1.6,1.67,2.46,3.87,2.41,6.18
		c-0.1,4.68-3.98,8.48-8.66,8.48l-0.19,0c-4.78-0.1-8.58-4.07-8.48-8.85C1363.85,28.13,1367.73,24.32,1372.41,24.32 M1372.41,23.32
		c-5.24,0-9.55,4.19-9.66,9.46c-0.11,5.34,4.12,9.75,9.46,9.87c0.07,0,0.14,0,0.21,0c5.24,0,9.55-4.19,9.66-9.46
		c0.11-5.34-4.12-9.75-9.46-9.87C1372.55,23.32,1372.48,23.32,1372.41,23.32L1372.41,23.32z"/>
</g>
<g>
	<path class="st1" d="M1215.03,42.15c-5.05-0.11-9.08-4.3-8.97-9.36c0.1-4.95,4.21-8.97,9.16-8.97l0.2,0
		c5.05,0.11,9.08,4.3,8.97,9.36c-0.1,4.95-4.21,8.97-9.16,8.97L1215.03,42.15z"/>
	<path class="st1" d="M1215.22,24.32L1215.22,24.32l0.19,0c4.78,0.1,8.58,4.07,8.48,8.85c-0.1,4.68-3.98,8.48-8.66,8.48l-0.19,0
		c-4.78-0.1-8.58-4.07-8.48-8.85C1206.66,28.13,1210.55,24.32,1215.22,24.32 M1215.22,23.32c-5.24,0-9.55,4.19-9.66,9.46
		c-0.11,5.34,4.12,9.75,9.46,9.87c0.07,0,0.14,0,0.21,0c5.24,0,9.55-4.19,9.66-9.46c0.11-5.34-4.12-9.75-9.46-9.87
		C1215.36,23.32,1215.29,23.32,1215.22,23.32L1215.22,23.32z"/>
</g>
<g>
	<path class="st1" d="M1057.84,40.44c-2.45-0.05-4.73-1.05-6.42-2.82s-2.6-4.09-2.55-6.54c0.1-4.95,4.21-8.97,9.16-8.97l0.2,0
		c2.45,0.05,4.73,1.05,6.42,2.82s2.6,4.09,2.55,6.54c-0.1,4.95-4.21,8.97-9.16,8.97L1057.84,40.44z"/>
	<path class="st1" d="M1058.03,22.61L1058.03,22.61l0.19,0c4.78,0.1,8.58,4.07,8.48,8.85c-0.1,4.68-3.98,8.48-8.66,8.48l-0.19,0
		c-4.78-0.1-8.58-4.07-8.48-8.85C1049.47,26.42,1053.36,22.61,1058.03,22.61 M1058.03,21.61c-5.24,0-9.55,4.19-9.66,9.46
		c-0.11,5.34,4.12,9.75,9.46,9.87c0.07,0,0.14,0,0.21,0c5.24,0,9.55-4.19,9.66-9.46c0.11-5.34-4.12-9.75-9.46-9.87
		C1058.17,21.61,1058.1,21.61,1058.03,21.61L1058.03,21.61z"/>
</g>
<g>
	<path class="st1" d="M900.65,40.44c-5.05-0.11-9.08-4.3-8.97-9.36c0.1-4.95,4.21-8.97,9.16-8.97l0.2,0
		c2.45,0.05,4.73,1.05,6.42,2.82s2.6,4.09,2.55,6.54c-0.1,4.95-4.21,8.97-9.16,8.97L900.65,40.44z"/>
	<path class="st1" d="M900.84,22.61L900.84,22.61l0.19,0c4.78,0.1,8.58,4.07,8.48,8.85c-0.1,4.68-3.98,8.48-8.66,8.48l-0.19,0
		c-2.31-0.05-4.47-1-6.07-2.67c-1.6-1.67-2.46-3.87-2.41-6.18C892.28,26.42,896.17,22.61,900.84,22.61 M900.84,21.61
		c-5.24,0-9.55,4.19-9.66,9.46c-0.11,5.34,4.12,9.75,9.46,9.87c0.07,0,0.14,0,0.21,0c5.24,0,9.55-4.19,9.66-9.46
		c0.11-5.34-4.12-9.75-9.46-9.87C900.98,21.61,900.91,21.61,900.84,21.61L900.84,21.61z"/>
</g>
<g>
	<path class="st1" d="M744.32,39.59c-5.05-0.11-9.08-4.3-8.97-9.36c0.1-4.95,4.21-8.97,9.16-8.97l0.2,0
		c5.05,0.11,9.08,4.3,8.97,9.36c-0.1,4.95-4.21,8.97-9.16,8.97L744.32,39.59z"/>
	<path class="st1" d="M744.51,21.76L744.51,21.76l0.19,0c4.78,0.1,8.58,4.07,8.48,8.85c-0.1,4.68-3.98,8.48-8.66,8.48l-0.19,0
		c-2.31-0.05-4.47-1-6.07-2.67c-1.6-1.67-2.46-3.87-2.41-6.18C735.95,25.56,739.83,21.76,744.51,21.76 M744.51,20.76
		c-5.24,0-9.55,4.19-9.66,9.46c-0.11,5.34,4.12,9.75,9.46,9.87c0.07,0,0.14,0,0.21,0c5.24,0,9.55-4.19,9.66-9.46
		c0.11-5.34-4.12-9.75-9.46-9.87C744.65,20.76,744.58,20.76,744.51,20.76L744.51,20.76z"/>
</g>
<g>
	<path class="st1" d="M587.99,38.73c-2.45-0.05-4.73-1.05-6.42-2.82s-2.6-4.09-2.55-6.54c0.1-4.95,4.21-8.97,9.16-8.97l0.2,0
		c5.05,0.11,9.08,4.3,8.97,9.36c-0.1,4.95-4.21,8.97-9.16,8.97L587.99,38.73z"/>
	<path class="st1" d="M588.17,20.9L588.17,20.9l0.19,0c4.78,0.1,8.58,4.07,8.48,8.85c-0.1,4.68-3.98,8.48-8.66,8.48l-0.19,0
		c-4.78-0.1-8.58-4.07-8.48-8.85C579.61,24.71,583.5,20.9,588.17,20.9 M588.17,19.9c-5.24,0-9.55,4.19-9.66,9.46
		c-0.11,5.34,4.12,9.75,9.46,9.87c0.07,0,0.14,0,0.21,0c5.24,0,9.55-4.19,9.66-9.46c0.11-5.34-4.12-9.75-9.46-9.87
		C588.31,19.9,588.24,19.9,588.17,19.9L588.17,19.9z"/>
</g>
<g>
	<path class="st1" d="M431.65,37.88c-5.05-0.11-9.08-4.3-8.97-9.36c0.1-4.95,4.21-8.97,9.16-8.97l0.2,0
		c2.45,0.05,4.73,1.05,6.42,2.82c1.69,1.77,2.6,4.09,2.55,6.54c-0.1,4.95-4.21,8.97-9.16,8.97L431.65,37.88z"/>
	<path class="st1" d="M431.84,20.05L431.84,20.05l0.19,0c4.78,0.1,8.58,4.07,8.48,8.85c-0.1,4.68-3.98,8.48-8.66,8.48l-0.19,0
		c-4.78-0.1-8.58-4.07-8.48-8.85C423.28,23.86,427.16,20.05,431.84,20.05 M431.84,19.05c-5.24,0-9.55,4.19-9.66,9.46
		c-0.11,5.34,4.12,9.75,9.46,9.87c0.07,0,0.14,0,0.21,0c5.24,0,9.55-4.19,9.66-9.46c0.11-5.34-4.12-9.75-9.46-9.87
		C431.98,19.05,431.91,19.05,431.84,19.05L431.84,19.05z"/>
</g>
<g>
	<path class="st1" d="M1368.8,197.63c-5.05-0.11-9.08-4.3-8.97-9.36c0.1-4.95,4.21-8.97,9.16-8.97l0.2,0
		c2.45,0.05,4.73,1.05,6.42,2.82s2.6,4.09,2.55,6.54c-0.1,4.95-4.21,8.97-9.16,8.97L1368.8,197.63z"/>
	<path class="st1" d="M1368.99,179.8L1368.99,179.8l0.19,0c2.31,0.05,4.47,1,6.07,2.67c1.6,1.67,2.46,3.87,2.41,6.18
		c-0.1,4.68-3.98,8.48-8.66,8.48l-0.19,0c-4.78-0.1-8.58-4.07-8.48-8.85C1360.43,183.61,1364.32,179.8,1368.99,179.8 M1368.99,178.8
		c-5.24,0-9.55,4.19-9.66,9.46c-0.11,5.34,4.12,9.75,9.46,9.87c0.07,0,0.14,0,0.21,0c5.24,0,9.55-4.19,9.66-9.46
		c0.11-5.34-4.12-9.75-9.46-9.87C1369.13,178.8,1369.06,178.8,1368.99,178.8L1368.99,178.8z"/>
</g>
<g>
	<path class="st1" d="M1290.75,120.04c-2.45-0.05-4.73-1.05-6.42-2.82c-1.69-1.77-2.6-4.09-2.55-6.54c0.1-4.95,4.21-8.97,9.16-8.97
		l0.2,0c5.05,0.11,9.08,4.3,8.97,9.36c-0.1,4.95-4.21,8.97-9.16,8.97L1290.75,120.04z"/>
	<path class="st1" d="M1290.94,102.21L1290.94,102.21l0.19,0c2.31,0.05,4.47,1,6.07,2.67c1.6,1.67,2.46,3.87,2.41,6.18
		c-0.1,4.68-3.98,8.48-8.66,8.48l-0.19,0c-2.31-0.05-4.47-1-6.07-2.67c-1.6-1.67-2.46-3.87-2.41-6.18
		C1282.38,106.02,1286.27,102.21,1290.94,102.21 M1290.94,101.21c-5.24,0-9.55,4.19-9.66,9.46c-0.11,5.34,4.12,9.75,9.46,9.87
		c0.07,0,0.14,0,0.21,0c5.24,0,9.55-4.19,9.66-9.46c0.11-5.34-4.12-9.75-9.46-9.87C1291.08,101.21,1291.01,101.21,1290.94,101.21
		L1290.94,101.21z"/>
</g>
<g>
	<path class="st1" d="M1211.62,197.63c-2.45-0.05-4.73-1.05-6.42-2.82s-2.6-4.09-2.55-6.54c0.1-4.95,4.21-8.97,9.16-8.97l0.2,0
		c5.05,0.11,9.08,4.3,8.97,9.36c-0.1,4.95-4.21,8.97-9.16,8.97L1211.62,197.63z"/>
	<path class="st1" d="M1211.8,179.8L1211.8,179.8l0.19,0c4.78,0.1,8.58,4.07,8.48,8.85c-0.1,4.68-3.98,8.48-8.66,8.48l-0.19,0
		c-2.31-0.05-4.47-1-6.07-2.67c-1.6-1.67-2.46-3.87-2.41-6.18C1203.24,183.61,1207.13,179.8,1211.8,179.8 M1211.8,178.8
		c-5.24,0-9.55,4.19-9.66,9.46c-0.11,5.34,4.12,9.75,9.46,9.87c0.07,0,0.14,0,0.21,0c5.24,0,9.55-4.19,9.66-9.46
		c0.11-5.34-4.12-9.75-9.46-9.87C1211.94,178.8,1211.87,178.8,1211.8,178.8L1211.8,178.8z"/>
</g>
<g>
	<path class="st1" d="M1134.42,119.18c-5.05-0.11-9.08-4.3-8.97-9.36c0.1-4.95,4.21-8.97,9.16-8.97l0.2,0
		c2.45,0.05,4.73,1.05,6.42,2.82s2.6,4.09,2.55,6.54c-0.1,4.95-4.21,8.97-9.16,8.97L1134.42,119.18z"/>
	<path class="st1" d="M1134.61,101.36L1134.61,101.36l0.19,0c4.78,0.1,8.58,4.07,8.48,8.85c-0.1,4.68-3.98,8.48-8.66,8.48l-0.19,0
		c-2.31-0.05-4.47-1-6.07-2.67c-1.6-1.67-2.46-3.87-2.41-6.18C1126.05,105.16,1129.93,101.36,1134.61,101.36 M1134.61,100.36
		c-5.24,0-9.55,4.19-9.66,9.46c-0.11,5.34,4.12,9.75,9.46,9.87c0.07,0,0.14,0,0.21,0c5.24,0,9.55-4.19,9.66-9.46
		c0.11-5.34-4.12-9.75-9.46-9.87C1134.75,100.36,1134.68,100.36,1134.61,100.36L1134.61,100.36z"/>
</g>
<g>
	<path class="st1" d="M1054.43,195.92c-2.45-0.05-4.73-1.05-6.42-2.82c-1.69-1.77-2.6-4.09-2.55-6.54c0.1-4.95,4.21-8.97,9.16-8.97
		l0.2,0c2.45,0.05,4.73,1.05,6.42,2.82c1.69,1.77,2.6,4.09,2.55,6.54c-0.1,4.95-4.21,8.97-9.16,8.97L1054.43,195.92z"/>
	<path class="st1" d="M1054.62,178.09L1054.62,178.09l0.19,0c2.31,0.05,4.47,1,6.07,2.67c1.6,1.67,2.46,3.87,2.41,6.18
		c-0.1,4.68-3.98,8.48-8.66,8.48l-0.19,0c-2.31-0.05-4.47-1-6.07-2.67c-1.6-1.67-2.46-3.87-2.41-6.18
		C1046.06,181.9,1049.94,178.09,1054.62,178.09 M1054.62,177.09c-5.24,0-9.55,4.19-9.66,9.46c-0.11,5.34,4.12,9.75,9.46,9.87
		c0.07,0,0.14,0,0.21,0c5.24,0,9.55-4.19,9.66-9.46c0.11-5.34-4.12-9.75-9.46-9.87C1054.75,177.09,1054.69,177.09,1054.62,177.09
		L1054.62,177.09z"/>
</g>
<g>
	<path class="st1" d="M976.38,118.33c-5.05-0.11-9.08-4.3-8.97-9.36c0.1-4.95,4.21-8.97,9.16-8.97l0.2,0
		c5.05,0.11,9.08,4.3,8.97,9.36c-0.1,4.95-4.21,8.97-9.16,8.97L976.38,118.33z"/>
	<path class="st1" d="M976.57,100.5L976.57,100.5l0.19,0c4.78,0.1,8.58,4.07,8.48,8.85c-0.1,4.68-3.98,8.48-8.66,8.48l-0.19,0
		c-4.78-0.1-8.58-4.07-8.48-8.85C968,104.31,971.89,100.5,976.57,100.5 M976.57,99.5c-5.24,0-9.55,4.19-9.66,9.46
		c-0.11,5.34,4.12,9.75,9.46,9.87c0.07,0,0.14,0,0.21,0c5.24,0,9.55-4.19,9.66-9.46c0.11-5.34-4.12-9.75-9.46-9.87
		C976.7,99.5,976.63,99.5,976.57,99.5L976.57,99.5z"/>
</g>
<g>
	<path class="st1" d="M897.24,195.92c-5.05-0.11-9.08-4.3-8.97-9.36c0.1-4.95,4.21-8.97,9.16-8.97l0.2,0
		c5.05,0.11,9.08,4.3,8.97,9.36c-0.1,4.95-4.21,8.97-9.16,8.97L897.24,195.92z"/>
	<path class="st1" d="M897.43,178.09L897.43,178.09l0.19,0c2.31,0.05,4.47,1,6.07,2.67c1.6,1.67,2.46,3.87,2.41,6.18
		c-0.1,4.68-3.98,8.48-8.66,8.48l-0.19,0c-4.78-0.1-8.58-4.07-8.48-8.85C888.87,181.9,892.75,178.09,897.43,178.09 M897.43,177.09
		c-5.24,0-9.55,4.19-9.66,9.46c-0.11,5.34,4.12,9.75,9.46,9.87c0.07,0,0.14,0,0.21,0c5.24,0,9.55-4.19,9.66-9.46
		c0.11-5.34-4.12-9.75-9.46-9.87C897.56,177.09,897.5,177.09,897.43,177.09L897.43,177.09z"/>
</g>
<g>
	<path class="st1" d="M819.19,118.33c-5.05-0.11-9.08-4.3-8.97-9.36c0.1-4.95,4.21-8.97,9.16-8.97l0.2,0
		c5.05,0.11,9.08,4.3,8.97,9.36c-0.1,4.95-4.21,8.97-9.16,8.97L819.19,118.33z"/>
	<path class="st1" d="M819.38,100.5L819.38,100.5l0.19,0c4.78,0.1,8.58,4.07,8.48,8.85c-0.1,4.68-3.98,8.48-8.66,8.48l-0.19,0
		c-2.31-0.05-4.47-1-6.07-2.67c-1.6-1.67-2.46-3.87-2.41-6.18C810.82,104.31,814.7,100.5,819.38,100.5 M819.38,99.5
		c-5.24,0-9.55,4.19-9.66,9.46c-0.11,5.34,4.12,9.75,9.46,9.87c0.07,0,0.14,0,0.21,0c5.24,0,9.55-4.19,9.66-9.46
		c0.11-5.34-4.12-9.75-9.46-9.87C819.51,99.5,819.45,99.5,819.38,99.5L819.38,99.5z"/>
</g>
<g>
	<path class="st1" d="M740.9,195.07c-2.45-0.05-4.73-1.05-6.42-2.82s-2.6-4.09-2.55-6.54c0.1-4.95,4.21-8.97,9.16-8.97l0.2,0
		c2.45,0.05,4.73,1.05,6.42,2.82c1.69,1.77,2.6,4.09,2.55,6.54c-0.1,4.95-4.21,8.97-9.16,8.97L740.9,195.07z"/>
	<path class="st1" d="M741.09,177.24L741.09,177.24l0.19,0c2.31,0.05,4.47,1,6.07,2.67c1.6,1.67,2.46,3.87,2.41,6.18
		c-0.1,4.68-3.98,8.48-8.66,8.48l-0.19,0c-4.78-0.1-8.58-4.07-8.48-8.85C732.53,181.04,736.42,177.24,741.09,177.24 M741.09,176.24
		c-5.24,0-9.55,4.19-9.66,9.46c-0.11,5.34,4.12,9.75,9.46,9.87c0.07,0,0.14,0,0.21,0c5.24,0,9.55-4.19,9.66-9.46
		c0.11-5.34-4.12-9.75-9.46-9.87C741.23,176.24,741.16,176.24,741.09,176.24L741.09,176.24z"/>
</g>
<g>
	<path class="st1" d="M662.85,117.48c-2.45-0.05-4.73-1.05-6.42-2.82c-1.69-1.77-2.6-4.09-2.55-6.54c0.1-4.95,4.21-8.97,9.16-8.97
		l0.2,0c2.45,0.05,4.73,1.05,6.42,2.82c1.69,1.77,2.6,4.09,2.55,6.54c-0.1,4.95-4.21,8.97-9.16,8.97L662.85,117.48z"/>
	<path class="st1" d="M663.04,99.65L663.04,99.65l0.19,0c2.31,0.05,4.47,1,6.07,2.67c1.6,1.67,2.46,3.87,2.41,6.18
		c-0.1,4.68-3.98,8.48-8.66,8.48l-0.19,0c-4.78-0.1-8.58-4.07-8.48-8.85C654.48,103.45,658.37,99.65,663.04,99.65 M663.04,98.65
		c-5.24,0-9.55,4.19-9.66,9.46c-0.11,5.34,4.12,9.75,9.46,9.87c0.07,0,0.14,0,0.21,0c5.24,0,9.55-4.19,9.66-9.46
		c0.11-5.34-4.12-9.75-9.46-9.87C663.18,98.65,663.11,98.65,663.04,98.65L663.04,98.65z"/>
</g>
<g>
	<path class="st1" d="M584.57,194.21c-5.05-0.11-9.08-4.3-8.97-9.36c0.1-4.95,4.21-8.97,9.16-8.97l0.2,0
		c2.45,0.05,4.73,1.05,6.42,2.82c1.69,1.77,2.6,4.09,2.55,6.54c-0.1,4.95-4.21,8.97-9.16,8.97L584.57,194.21z"/>
	<path class="st1" d="M584.76,176.38L584.76,176.38l0.19,0c4.78,0.1,8.58,4.07,8.48,8.85c-0.1,4.68-3.98,8.48-8.66,8.48l-0.19,0
		c-2.31-0.05-4.47-1-6.07-2.67c-1.6-1.67-2.46-3.87-2.41-6.18C576.2,180.19,580.08,176.38,584.76,176.38 M584.76,175.38
		c-5.24,0-9.55,4.19-9.66,9.46c-0.11,5.34,4.12,9.75,9.46,9.87c0.07,0,0.14,0,0.21,0c5.24,0,9.55-4.19,9.66-9.46
		c0.11-5.34-4.12-9.75-9.46-9.87C584.9,175.38,584.83,175.38,584.76,175.38L584.76,175.38z"/>
</g>
<g>
	<path class="st1" d="M506.52,116.62c-2.45-0.05-4.73-1.05-6.42-2.82c-1.69-1.77-2.6-4.09-2.55-6.54c0.1-4.95,4.21-8.97,9.16-8.97
		l0.2,0c5.05,0.11,9.08,4.3,8.97,9.36c-0.1,4.95-4.21,8.97-9.16,8.97L506.52,116.62z"/>
	<path class="st1" d="M506.71,98.79L506.71,98.79l0.19,0c4.78,0.1,8.58,4.07,8.48,8.85c-0.1,4.68-3.98,8.48-8.66,8.48l-0.19,0
		c-4.78-0.1-8.58-4.07-8.48-8.85C498.15,102.6,502.03,98.79,506.71,98.79 M506.71,97.79c-5.24,0-9.55,4.19-9.66,9.46
		c-0.11,5.34,4.12,9.75,9.46,9.87c0.07,0,0.14,0,0.21,0c5.24,0,9.55-4.19,9.66-9.46c0.11-5.34-4.12-9.75-9.46-9.87
		C506.85,97.79,506.78,97.79,506.71,97.79L506.71,97.79z"/>
</g>
<g>
	<path class="st1" d="M428.23,193.36c-2.45-0.05-4.73-1.05-6.42-2.82s-2.6-4.09-2.55-6.54c0.1-4.95,4.21-8.97,9.16-8.97l0.2,0
		c2.45,0.05,4.73,1.05,6.42,2.82c1.69,1.77,2.6,4.09,2.55,6.54c-0.1,4.95-4.21,8.97-9.16,8.97L428.23,193.36z"/>
	<path class="st1" d="M428.42,175.53L428.42,175.53l0.19,0c2.31,0.05,4.47,1,6.07,2.67c1.6,1.67,2.46,3.87,2.41,6.18
		c-0.1,4.68-3.98,8.48-8.66,8.48l-0.19,0c-4.78-0.1-8.58-4.07-8.48-8.85C419.86,179.34,423.75,175.53,428.42,175.53 M428.42,174.53
		c-5.24,0-9.55,4.19-9.66,9.46c-0.11,5.34,4.12,9.75,9.46,9.87c0.07,0,0.14,0,0.21,0c5.24,0,9.55-4.19,9.66-9.46
		c0.11-5.34-4.12-9.75-9.46-9.87C428.56,174.53,428.49,174.53,428.42,174.53L428.42,174.53z"/>
</g>
<g>
	<path class="st1" d="M350.18,115.77c-5.05-0.11-9.08-4.3-8.97-9.36c0.1-4.95,4.21-8.97,9.16-8.97l0.2,0
		c5.05,0.11,9.08,4.3,8.97,9.36c-0.1,4.95-4.21,8.97-9.16,8.97L350.18,115.77z"/>
	<path class="st1" d="M350.37,97.94L350.37,97.94l0.19,0c2.31,0.05,4.47,1,6.07,2.67c1.6,1.67,2.46,3.87,2.41,6.18
		c-0.1,4.68-3.98,8.48-8.66,8.48l-0.19,0c-2.31-0.05-4.47-1-6.07-2.67c-1.6-1.67-2.46-3.87-2.41-6.18
		C341.81,101.74,345.7,97.94,350.37,97.94 M350.37,96.94c-5.24,0-9.55,4.19-9.66,9.46c-0.11,5.34,4.12,9.75,9.46,9.87
		c0.07,0,0.14,0,0.21,0c5.24,0,9.55-4.19,9.66-9.46c0.11-5.34-4.12-9.75-9.46-9.87C350.51,96.94,350.44,96.94,350.37,96.94
		L350.37,96.94z"/>
</g>
<g>
	<path class="st1" d="M1365.39,353.11c-5.05-0.11-9.08-4.3-8.97-9.36c0.1-4.95,4.21-8.97,9.16-8.97l0.2,0
		c5.05,0.11,9.08,4.3,8.97,9.36c-0.1,4.95-4.21,8.97-9.16,8.97L1365.39,353.11z"/>
	<path class="st1" d="M1365.58,335.28L1365.58,335.28l0.19,0c4.78,0.1,8.58,4.07,8.48,8.85c-0.1,4.68-3.98,8.48-8.66,8.48l-0.19,0
		c-2.31-0.05-4.47-1-6.07-2.67c-1.6-1.67-2.46-3.87-2.41-6.18C1357.02,339.09,1360.9,335.28,1365.58,335.28 M1365.58,334.28
		c-5.24,0-9.55,4.19-9.66,9.46c-0.11,5.34,4.12,9.75,9.46,9.87c0.07,0,0.14,0,0.21,0c5.24,0,9.55-4.19,9.66-9.46
		c0.11-5.34-4.12-9.75-9.46-9.87C1365.71,334.28,1365.65,334.28,1365.58,334.28L1365.58,334.28z"/>
</g>
<g>
	<path class="st1" d="M1287.34,275.52c-2.45-0.05-4.73-1.05-6.42-2.82c-1.69-1.77-2.6-4.09-2.55-6.54c0.1-4.95,4.21-8.97,9.16-8.97
		l0.2,0c2.45,0.05,4.73,1.05,6.42,2.82c1.69,1.77,2.6,4.09,2.55,6.54c-0.1,4.95-4.21,8.97-9.16,8.97L1287.34,275.52z"/>
	<path class="st1" d="M1287.53,256.69v1l0.19,0c4.78,0.1,8.58,4.07,8.48,8.85c-0.1,4.68-3.98,8.48-8.66,8.48l-0.19,0
		c-4.78-0.1-8.58-4.07-8.48-8.85c0.1-4.68,3.98-8.48,8.66-8.48L1287.53,256.69 M1287.53,256.69c-5.24,0-9.55,4.19-9.66,9.46
		c-0.11,5.34,4.12,9.75,9.46,9.87c0.07,0,0.14,0,0.21,0c5.24,0,9.55-4.19,9.66-9.46c0.11-5.34-4.12-9.75-9.46-9.87
		C1287.66,256.69,1287.6,256.69,1287.53,256.69L1287.53,256.69z"/>
</g>
<g>
	<path class="st1" d="M1204.78,508.59c-2.45-0.05-4.73-1.05-6.42-2.82s-2.6-4.09-2.55-6.54c0.1-4.95,4.21-8.97,9.16-8.97l0.2,0
		c5.05,0.11,9.08,4.3,8.97,9.36c-0.1,4.95-4.21,8.97-9.16,8.97L1204.78,508.59z"/>
	<path class="st1" d="M1204.97,490.76L1204.97,490.76l0.19,0c4.78,0.1,8.58,4.07,8.48,8.85c-0.1,4.68-3.98,8.48-8.66,8.48l-0.19,0
		c-4.78-0.1-8.58-4.07-8.48-8.85C1196.41,494.57,1200.29,490.76,1204.97,490.76 M1204.97,489.76c-5.24,0-9.55,4.19-9.66,9.46
		c-0.11,5.34,4.12,9.75,9.46,9.87c0.07,0,0.14,0,0.21,0c5.24,0,9.55-4.19,9.66-9.46c0.11-5.34-4.12-9.75-9.46-9.87
		C1205.11,489.76,1205.04,489.76,1204.97,489.76L1204.97,489.76z"/>
</g>
<g>
	<path class="st1" d="M1127.58,430.14c-2.45-0.05-4.73-1.05-6.42-2.82c-1.69-1.77-2.6-4.09-2.55-6.54c0.1-4.95,4.21-8.97,9.16-8.97
		l0.2,0c5.05,0.11,9.08,4.3,8.97,9.36c-0.1,4.95-4.21,8.97-9.16,8.97L1127.58,430.14z"/>
	<path class="st1" d="M1127.77,412.32L1127.77,412.32l0.19,0c4.78,0.1,8.58,4.07,8.48,8.85c-0.1,4.68-3.98,8.48-8.66,8.48l-0.19,0
		c-4.78-0.1-8.58-4.07-8.48-8.85C1119.21,416.12,1123.1,412.32,1127.77,412.32 M1127.77,411.32c-5.24,0-9.55,4.19-9.66,9.46
		c-0.11,5.34,4.12,9.75,9.46,9.87c0.07,0,0.14,0,0.21,0c5.24,0,9.55-4.19,9.66-9.46c0.11-5.34-4.12-9.75-9.46-9.87
		C1127.91,411.32,1127.84,411.32,1127.77,411.32L1127.77,411.32z"/>
</g>
<g>
	<path class="st1" d="M1047.59,506.88c-5.05-0.11-9.08-4.3-8.97-9.36c0.1-4.95,4.21-8.97,9.16-8.97l0.2,0
		c5.05,0.11,9.08,4.3,8.97,9.36c-0.1,4.95-4.21,8.97-9.16,8.97L1047.59,506.88z"/>
	<path class="st1" d="M1047.78,488.05v1l0.19,0c4.78,0.1,8.58,4.07,8.48,8.85c-0.1,4.68-3.98,8.48-8.66,8.48l-0.19,0
		c-2.31-0.05-4.47-1-6.07-2.67s-2.46-3.87-2.41-6.18c0.1-4.68,3.98-8.48,8.66-8.48L1047.78,488.05 M1047.78,488.05
		c-5.24,0-9.55,4.19-9.66,9.46c-0.11,5.34,4.12,9.75,9.46,9.87c0.07,0,0.14,0,0.21,0c5.24,0,9.55-4.19,9.66-9.46
		c0.11-5.34-4.12-9.75-9.46-9.87C1047.92,488.05,1047.85,488.05,1047.78,488.05L1047.78,488.05z"/>
</g>
<g>
	<path class="st1" d="M969.54,429.29c-2.45-0.05-4.73-1.05-6.42-2.82c-1.69-1.77-2.6-4.09-2.55-6.54c0.1-4.95,4.21-8.97,9.16-8.97
		l0.2,0c2.45,0.05,4.73,1.05,6.42,2.82s2.6,4.09,2.55,6.54c-0.1,4.95-4.21,8.97-9.16,8.97L969.54,429.29z"/>
	<path class="st1" d="M969.73,411.46L969.73,411.46l0.19,0c2.31,0.05,4.47,1,6.07,2.67c1.6,1.67,2.46,3.87,2.41,6.18
		c-0.1,4.68-3.98,8.48-8.66,8.48l-0.19,0c-4.78-0.1-8.58-4.07-8.48-8.85C961.17,415.27,965.05,411.46,969.73,411.46 M969.73,410.46
		c-5.24,0-9.55,4.19-9.66,9.46c-0.11,5.34,4.12,9.75,9.46,9.87c0.07,0,0.14,0,0.21,0c5.24,0,9.55-4.19,9.66-9.46
		c0.11-5.34-4.12-9.75-9.46-9.87C969.87,410.46,969.8,410.46,969.73,410.46L969.73,410.46z"/>
</g>
<g>
	<path class="st1" d="M890.4,506.88c-5.05-0.11-9.08-4.3-8.97-9.36c0.1-4.95,4.21-8.97,9.16-8.97l0.2,0
		c5.05,0.11,9.08,4.3,8.97,9.36c-0.1,4.95-4.21,8.97-9.16,8.97L890.4,506.88z"/>
	<path class="st1" d="M890.59,488.05v1l0.19,0c2.31,0.05,4.47,1,6.07,2.67c1.6,1.67,2.46,3.87,2.41,6.18
		c-0.1,4.68-3.98,8.48-8.66,8.48l-0.19,0c-2.31-0.05-4.47-1-6.07-2.67c-1.6-1.67-2.46-3.87-2.41-6.18c0.1-4.68,3.98-8.48,8.66-8.48
		L890.59,488.05 M890.59,488.05c-5.24,0-9.55,4.19-9.66,9.46c-0.11,5.34,4.12,9.75,9.46,9.87c0.07,0,0.14,0,0.21,0
		c5.24,0,9.55-4.19,9.66-9.46c0.11-5.34-4.12-9.75-9.46-9.87C890.73,488.05,890.66,488.05,890.59,488.05L890.59,488.05z"/>
</g>
<g>
	<path class="st1" d="M812.35,429.29c-5.05-0.11-9.08-4.3-8.97-9.36c0.1-4.95,4.21-8.97,9.16-8.97l0.2,0
		c2.45,0.05,4.73,1.05,6.42,2.82c1.69,1.77,2.6,4.09,2.55,6.54c-0.1,4.95-4.21,8.97-9.16,8.97L812.35,429.29z"/>
	<path class="st1" d="M812.54,411.46L812.54,411.46l0.19,0c2.31,0.05,4.47,1,6.07,2.67c1.6,1.67,2.46,3.87,2.41,6.18
		c-0.1,4.68-3.98,8.48-8.66,8.48l-0.19,0c-4.78-0.1-8.58-4.07-8.48-8.85C803.98,415.27,807.87,411.46,812.54,411.46 M812.54,410.46
		c-5.24,0-9.55,4.19-9.66,9.46c-0.11,5.34,4.12,9.75,9.46,9.87c0.07,0,0.14,0,0.21,0c5.24,0,9.55-4.19,9.66-9.46
		c0.11-5.34-4.12-9.75-9.46-9.87C812.68,410.46,812.61,410.46,812.54,410.46L812.54,410.46z"/>
</g>
<g>
	<path class="st1" d="M734.07,506.03c-5.05-0.11-9.08-4.3-8.97-9.36c0.1-4.95,4.21-8.97,9.16-8.97l0.2,0
		c2.45,0.05,4.73,1.05,6.42,2.82s2.6,4.09,2.55,6.54c-0.1,4.95-4.21,8.97-9.16,8.97L734.07,506.03z"/>
	<path class="st1" d="M734.26,488.2L734.26,488.2l0.19,0c2.31,0.05,4.47,1,6.07,2.67s2.46,3.87,2.41,6.18
		c-0.1,4.68-3.98,8.48-8.66,8.48l-0.19,0c-2.31-0.05-4.47-1-6.07-2.67c-1.6-1.67-2.46-3.87-2.41-6.18
		C725.7,492,729.58,488.2,734.26,488.2 M734.26,487.2c-5.24,0-9.55,4.19-9.66,9.46c-0.11,5.34,4.12,9.75,9.46,9.87
		c0.07,0,0.14,0,0.21,0c5.24,0,9.55-4.19,9.66-9.46c0.11-5.34-4.12-9.75-9.46-9.87C734.4,487.2,734.33,487.2,734.26,487.2
		L734.26,487.2z"/>
</g>
<g>
	<path class="st1" d="M656.02,428.44c-5.05-0.11-9.08-4.3-8.97-9.36c0.1-4.95,4.21-8.97,9.16-8.97l0.2,0
		c5.05,0.11,9.08,4.3,8.97,9.36c-0.1,4.95-4.21,8.97-9.16,8.97L656.02,428.44z"/>
	<path class="st1" d="M656.21,410.61L656.21,410.61l0.19,0c2.31,0.05,4.47,1,6.07,2.67c1.6,1.67,2.46,3.87,2.41,6.18
		c-0.1,4.68-3.98,8.48-8.66,8.48l-0.19,0c-2.31-0.05-4.47-1-6.07-2.67c-1.6-1.67-2.46-3.87-2.41-6.18
		C647.65,414.41,651.53,410.61,656.21,410.61 M656.21,409.61c-5.24,0-9.55,4.19-9.66,9.46c-0.11,5.34,4.12,9.75,9.46,9.87
		c0.07,0,0.14,0,0.21,0c5.24,0,9.55-4.19,9.66-9.46c0.11-5.34-4.12-9.75-9.46-9.87C656.35,409.61,656.28,409.61,656.21,409.61
		L656.21,409.61z"/>
</g>
<g>
	<path class="st1" d="M577.73,505.17c-2.45-0.05-4.73-1.05-6.42-2.82s-2.6-4.09-2.55-6.54c0.1-4.95,4.21-8.97,9.16-8.97l0.2,0
		c5.05,0.11,9.08,4.3,8.97,9.36c-0.1,4.95-4.21,8.97-9.16,8.97L577.73,505.17z"/>
	<path class="st1" d="M577.92,487.34L577.92,487.34l0.19,0c4.78,0.1,8.58,4.07,8.48,8.85c-0.1,4.68-3.98,8.48-8.66,8.48l-0.19,0
		c-2.31-0.05-4.47-1-6.07-2.67c-1.6-1.67-2.46-3.87-2.41-6.18C569.36,491.15,573.25,487.35,577.92,487.34 M577.92,486.34
		c-5.24,0-9.55,4.19-9.66,9.46c-0.11,5.34,4.12,9.75,9.46,9.87c0.07,0,0.14,0,0.21,0c5.24,0,9.55-4.19,9.66-9.46
		c0.11-5.34-4.12-9.75-9.46-9.87C578.06,486.35,577.99,486.34,577.92,486.34L577.92,486.34z"/>
</g>
<g>
	<path class="st1" d="M499.68,427.58c-2.45-0.05-4.73-1.05-6.42-2.82c-1.69-1.77-2.6-4.09-2.55-6.54c0.1-4.95,4.21-8.97,9.16-8.97
		l0.2,0c5.05,0.11,9.08,4.3,8.97,9.36c-0.1,4.95-4.21,8.97-9.16,8.97L499.68,427.58z"/>
	<path class="st1" d="M499.87,409.75L499.87,409.75l0.19,0c4.78,0.1,8.58,4.07,8.48,8.85c-0.1,4.68-3.98,8.48-8.66,8.48l-0.19,0
		c-4.78-0.1-8.58-4.07-8.48-8.85C491.31,413.56,495.2,409.75,499.87,409.75 M499.87,408.75c-5.24,0-9.55,4.19-9.66,9.46
		c-0.11,5.34,4.12,9.75,9.46,9.87c0.07,0,0.14,0,0.21,0c5.24,0,9.55-4.19,9.66-9.46c0.11-5.34-4.12-9.75-9.46-9.87
		C500.01,408.75,499.94,408.75,499.87,408.75L499.87,408.75z"/>
</g>
<g>
	<path class="st1" d="M421.4,504.32c-2.45-0.05-4.73-1.05-6.42-2.82s-2.6-4.09-2.55-6.54c0.1-4.95,4.21-8.97,9.16-8.97l0.2,0
		c2.45,0.05,4.73,1.05,6.42,2.82c1.69,1.77,2.6,4.09,2.55,6.54c-0.1,4.95-4.21,8.97-9.16,8.97L421.4,504.32z"/>
	<path class="st1" d="M421.59,486.49L421.59,486.49l0.19,0c2.31,0.05,4.47,1,6.07,2.67c1.6,1.67,2.46,3.87,2.41,6.18
		c-0.1,4.68-3.98,8.48-8.66,8.48l-0.19,0c-2.31-0.05-4.47-1-6.07-2.67c-1.6-1.67-2.46-3.87-2.41-6.18
		C413.03,490.3,416.91,486.49,421.59,486.49 M421.59,485.49c-5.24,0-9.55,4.19-9.66,9.46c-0.11,5.34,4.12,9.75,9.46,9.87
		c0.07,0,0.14,0,0.21,0c5.24,0,9.55-4.19,9.66-9.46c0.11-5.34-4.12-9.75-9.46-9.87C421.73,485.49,421.66,485.49,421.59,485.49
		L421.59,485.49z"/>
</g>
<g>
	<path class="st1" d="M343.35,426.73c-2.45-0.05-4.73-1.05-6.42-2.82c-1.69-1.77-2.6-4.09-2.55-6.54c0.1-4.95,4.21-8.97,9.16-8.97
		l0.2,0c5.05,0.11,9.08,4.3,8.97,9.36c-0.1,4.95-4.21,8.97-9.16,8.97L343.35,426.73z"/>
	<path class="st1" d="M343.54,408.9L343.54,408.9l0.19,0c4.78,0.1,8.58,4.07,8.48,8.85c-0.1,4.68-3.98,8.48-8.66,8.48l-0.19,0
		c-4.78-0.1-8.58-4.07-8.48-8.85C334.98,412.71,338.86,408.9,343.54,408.9 M343.54,407.9c-5.24,0-9.55,4.19-9.66,9.46
		c-0.11,5.34,4.12,9.75,9.46,9.87c0.07,0,0.14,0,0.21,0c5.24,0,9.55-4.19,9.66-9.46c0.11-5.34-4.12-9.75-9.46-9.87
		C343.68,407.9,343.61,407.9,343.54,407.9L343.54,407.9z"/>
</g>
<g>
	<path class="st1" d="M1358.55,664.07c-5.05-0.11-9.08-4.3-8.97-9.36c0.1-4.95,4.21-8.97,9.16-8.97l0.2,0
		c5.05,0.11,9.08,4.3,8.97,9.36c-0.1,4.95-4.21,8.97-9.16,8.97L1358.55,664.07z"/>
	<path class="st1" d="M1358.74,645.24v1l0.19,0c2.31,0.05,4.47,1,6.07,2.67c1.6,1.67,2.46,3.87,2.41,6.18
		c-0.1,4.68-3.98,8.48-8.66,8.48l-0.19,0c-4.78-0.1-8.58-4.07-8.48-8.85c0.1-4.68,3.98-8.48,8.66-8.48L1358.74,645.24
		 M1358.74,645.24c-5.24,0-9.55,4.19-9.66,9.46c-0.11,5.34,4.12,9.75,9.46,9.87c0.07,0,0.14,0,0.21,0c5.24,0,9.55-4.19,9.66-9.46
		c0.11-5.34-4.12-9.75-9.46-9.87C1358.88,645.24,1358.81,645.24,1358.74,645.24L1358.74,645.24z"/>
</g>
<g>
	<path class="st1" d="M1280.5,586.48c-5.05-0.11-9.08-4.3-8.97-9.36c0.1-4.95,4.21-8.97,9.16-8.97l0.2,0
		c5.05,0.11,9.08,4.3,8.97,9.36c-0.1,4.95-4.21,8.97-9.16,8.97L1280.5,586.48z"/>
	<path class="st1" d="M1280.69,567.65v1l0.19,0c2.31,0.05,4.47,1,6.07,2.67c1.6,1.67,2.46,3.87,2.41,6.18
		c-0.1,4.68-3.98,8.48-8.66,8.48l-0.19,0c-4.78-0.1-8.58-4.07-8.48-8.85c0.1-4.68,3.98-8.48,8.66-8.48L1280.69,567.65
		 M1280.69,567.65c-5.24,0-9.55,4.19-9.66,9.46c-0.11,5.34,4.12,9.75,9.46,9.87c0.07,0,0.14,0,0.21,0c5.24,0,9.55-4.19,9.66-9.46
		c0.11-5.34-4.12-9.75-9.46-9.87C1280.83,567.65,1280.76,567.65,1280.69,567.65L1280.69,567.65z"/>
</g>
<g>
	<path class="st1" d="M1124.17,585.62c-2.45-0.05-4.73-1.05-6.42-2.82s-2.6-4.09-2.55-6.54c0.1-4.95,4.21-8.97,9.16-8.97l0.2,0
		c5.05,0.11,9.08,4.3,8.97,9.36c-0.1,4.95-4.21,8.97-9.16,8.97L1124.17,585.62z"/>
	<path class="st1" d="M1124.36,567.8L1124.36,567.8l0.19,0c2.31,0.05,4.47,1,6.07,2.67c1.6,1.67,2.46,3.87,2.41,6.18
		c-0.1,4.68-3.98,8.48-8.66,8.48l-0.19,0c-2.31-0.05-4.47-1-6.07-2.67c-1.6-1.67-2.46-3.87-2.41-6.18
		C1115.8,571.6,1119.68,567.8,1124.36,567.8 M1124.36,566.8c-5.24,0-9.55,4.19-9.66,9.46c-0.11,5.34,4.12,9.75,9.46,9.87
		c0.07,0,0.14,0,0.21,0c5.24,0,9.55-4.19,9.66-9.46c0.11-5.34-4.12-9.75-9.46-9.87C1124.5,566.8,1124.43,566.8,1124.36,566.8
		L1124.36,566.8z"/>
</g>
<g>
	<path class="st1" d="M1044.17,662.36c-5.05-0.11-9.08-4.3-8.97-9.36c0.1-4.95,4.21-8.97,9.16-8.97l0.2,0
		c2.45,0.05,4.73,1.05,6.42,2.82c1.69,1.77,2.6,4.09,2.55,6.54c-0.1,4.95-4.21,8.97-9.16,8.97L1044.17,662.36z"/>
	<path class="st1" d="M1044.36,644.53L1044.36,644.53l0.19,0c2.31,0.05,4.47,1,6.07,2.67c1.6,1.67,2.46,3.87,2.41,6.18
		c-0.1,4.68-3.98,8.48-8.66,8.48l-0.19,0c-2.31-0.05-4.47-1-6.07-2.67c-1.6-1.67-2.46-3.87-2.41-6.18
		C1035.8,648.34,1039.69,644.53,1044.36,644.53 M1044.36,643.53c-5.24,0-9.55,4.19-9.66,9.46c-0.11,5.34,4.12,9.75,9.46,9.87
		c0.07,0,0.14,0,0.21,0c5.24,0,9.55-4.19,9.66-9.46c0.11-5.34-4.12-9.75-9.46-9.87C1044.5,643.53,1044.43,643.53,1044.36,643.53
		L1044.36,643.53z"/>
</g>
<g>
	<path class="st1" d="M966.12,584.77c-2.45-0.05-4.73-1.05-6.42-2.82c-1.69-1.77-2.6-4.09-2.55-6.54c0.1-4.95,4.21-8.97,9.16-8.97
		l0.2,0c2.45,0.05,4.73,1.05,6.42,2.82s2.6,4.09,2.55,6.54c-0.1,4.95-4.21,8.97-9.16,8.97L966.12,584.77z"/>
	<path class="st1" d="M966.32,565.94v1l0.19,0c2.31,0.05,4.47,1,6.07,2.67c1.6,1.67,2.46,3.87,2.41,6.18
		c-0.1,4.68-3.98,8.48-8.66,8.48l-0.19,0c-2.31-0.05-4.47-1-6.07-2.67c-1.6-1.67-2.46-3.87-2.41-6.18c0.1-4.68,3.98-8.48,8.66-8.48
		L966.32,565.94 M966.31,565.94c-5.24,0-9.55,4.19-9.66,9.46c-0.11,5.34,4.12,9.75,9.46,9.87c0.07,0,0.14,0,0.21,0
		c5.24,0,9.55-4.19,9.66-9.46c0.11-5.34-4.12-9.75-9.46-9.87C966.45,565.94,966.38,565.94,966.31,565.94L966.31,565.94z"/>
</g>
<g>
	<path class="st1" d="M886.99,662.36c-5.05-0.11-9.08-4.3-8.97-9.36c0.1-4.95,4.21-8.97,9.16-8.97l0.2,0
		c2.45,0.05,4.73,1.05,6.42,2.82s2.6,4.09,2.55,6.54c-0.1,4.95-4.21,8.97-9.16,8.97L886.99,662.36z"/>
	<path class="st1" d="M887.18,644.53L887.18,644.53l0.19,0c2.31,0.05,4.47,1,6.07,2.67c1.6,1.67,2.46,3.87,2.41,6.18
		c-0.1,4.68-3.98,8.48-8.66,8.48l-0.19,0c-2.31-0.05-4.47-1-6.07-2.67c-1.6-1.67-2.46-3.87-2.41-6.18
		C878.61,648.34,882.5,644.53,887.18,644.53 M887.18,643.53c-5.24,0-9.55,4.19-9.66,9.46c-0.11,5.34,4.12,9.75,9.46,9.87
		c0.07,0,0.14,0,0.21,0c5.24,0,9.55-4.19,9.66-9.46c0.11-5.34-4.12-9.75-9.46-9.87C887.31,643.53,887.24,643.53,887.18,643.53
		L887.18,643.53z"/>
</g>
<g>
	<path class="st1" d="M730.65,661.51c-5.05-0.11-9.08-4.3-8.97-9.36c0.1-4.95,4.21-8.97,9.16-8.97l0.2,0
		c5.05,0.11,9.08,4.3,8.97,9.36c-0.1,4.95-4.21,8.97-9.16,8.97L730.65,661.51z"/>
	<path class="st1" d="M730.84,642.68v1l0.19,0c2.31,0.05,4.47,1,6.07,2.67c1.6,1.67,2.46,3.87,2.41,6.18
		c-0.1,4.68-3.98,8.48-8.66,8.48l-0.19,0c-4.78-0.1-8.58-4.07-8.48-8.85c0.1-4.68,3.98-8.48,8.66-8.48L730.84,642.68 M730.84,642.68
		c-5.24,0-9.55,4.19-9.66,9.46c-0.11,5.34,4.12,9.75,9.46,9.87c0.07,0,0.14,0,0.21,0c5.24,0,9.55-4.19,9.66-9.46
		c0.11-5.34-4.12-9.75-9.46-9.87C730.98,642.68,730.91,642.68,730.84,642.68L730.84,642.68z"/>
</g>
<g>
	<path class="st1" d="M808.94,584.77c-2.45-0.05-4.73-1.05-6.42-2.82c-1.69-1.77-2.6-4.09-2.55-6.54c0.1-4.95,4.21-8.97,9.16-8.97
		l0.2,0c2.45,0.05,4.73,1.05,6.42,2.82c1.69,1.77,2.6,4.09,2.55,6.54c-0.1,4.95-4.21,8.97-9.16,8.97L808.94,584.77z"/>
	<path class="st1" d="M809.13,565.94v1l0.19,0c2.31,0.05,4.47,1,6.07,2.67c1.6,1.67,2.46,3.87,2.41,6.18
		c-0.1,4.68-3.98,8.48-8.66,8.48l-0.19,0c-2.31-0.05-4.47-1-6.07-2.67c-1.6-1.67-2.46-3.87-2.41-6.18c0.1-4.68,3.98-8.48,8.66-8.48
		L809.13,565.94 M809.12,565.94c-5.24,0-9.55,4.19-9.66,9.46c-0.11,5.34,4.12,9.75,9.46,9.87c0.07,0,0.14,0,0.21,0
		c5.24,0,9.55-4.19,9.66-9.46c0.11-5.34-4.12-9.75-9.46-9.87C809.26,565.94,809.19,565.94,809.12,565.94L809.12,565.94z"/>
</g>
<g>
	<path class="st1" d="M652.6,583.92c-5.05-0.11-9.08-4.3-8.97-9.36c0.1-4.95,4.21-8.97,9.16-8.97l0.2,0
		c2.45,0.05,4.73,1.05,6.42,2.82c1.69,1.77,2.6,4.09,2.55,6.54c-0.1,4.95-4.21,8.97-9.16,8.97L652.6,583.92z"/>
	<path class="st1" d="M652.79,565.09v1l0.19,0c4.78,0.1,8.58,4.07,8.48,8.85c-0.1,4.68-3.98,8.48-8.66,8.48l-0.19,0
		c-4.78-0.1-8.58-4.07-8.48-8.85c0.1-4.68,3.98-8.48,8.66-8.48L652.79,565.09 M652.79,565.09c-5.24,0-9.55,4.19-9.66,9.46
		c-0.11,5.34,4.12,9.75,9.46,9.87c0.07,0,0.14,0,0.21,0c5.24,0,9.55-4.19,9.66-9.46c0.11-5.34-4.12-9.75-9.46-9.87
		C652.93,565.09,652.86,565.09,652.79,565.09L652.79,565.09z"/>
</g>
<g>
	<path class="st1" d="M574.32,660.65c-2.45-0.05-4.73-1.05-6.42-2.82c-1.69-1.77-2.6-4.09-2.55-6.54c0.1-4.95,4.21-8.97,9.16-8.97
		l0.2,0c2.45,0.05,4.73,1.05,6.42,2.82c1.69,1.77,2.6,4.09,2.55,6.54c-0.1,4.95-4.21,8.97-9.16,8.97L574.32,660.65z"/>
	<path class="st1" d="M574.51,641.83v1l0.19,0c4.78,0.1,8.58,4.07,8.48,8.85c-0.1,4.68-3.98,8.48-8.66,8.48l-0.19,0
		c-4.78-0.1-8.58-4.07-8.48-8.85c0.1-4.68,3.98-8.48,8.66-8.48L574.51,641.83 M574.51,641.83c-5.24,0-9.55,4.19-9.66,9.46
		c-0.11,5.34,4.12,9.75,9.46,9.87c0.07,0,0.14,0,0.21,0c5.24,0,9.55-4.19,9.66-9.46c0.11-5.34-4.12-9.75-9.46-9.87
		C574.64,641.83,574.58,641.83,574.51,641.83L574.51,641.83z"/>
</g>
<g>
	<path class="st1" d="M496.27,583.06c-2.45-0.05-4.73-1.05-6.42-2.82c-1.69-1.77-2.6-4.09-2.55-6.54c0.1-4.95,4.21-8.97,9.16-8.97
		l0.2,0c2.45,0.05,4.73,1.05,6.42,2.82c1.69,1.77,2.6,4.09,2.55,6.54c-0.1,4.95-4.21,8.97-9.16,8.97L496.27,583.06z"/>
	<path class="st1" d="M496.46,565.23L496.46,565.23l0.19,0c2.31,0.05,4.47,1,6.07,2.67c1.6,1.67,2.46,3.87,2.41,6.18
		c-0.1,4.68-3.98,8.48-8.66,8.48l-0.19,0c-2.31-0.05-4.47-1-6.07-2.67c-1.6-1.67-2.46-3.87-2.41-6.18
		C487.9,569.04,491.78,565.23,496.46,565.23 M496.46,564.23c-5.24,0-9.55,4.19-9.66,9.46c-0.11,5.34,4.12,9.75,9.46,9.87
		c0.07,0,0.14,0,0.21,0c5.24,0,9.55-4.19,9.66-9.46c0.11-5.34-4.12-9.75-9.46-9.87C496.59,564.23,496.52,564.23,496.46,564.23
		L496.46,564.23z"/>
</g>
<g>
	<path class="st1" d="M1277.08,741.96c-5.05-0.11-9.08-4.3-8.97-9.36c0.1-4.95,4.21-8.97,9.16-8.97l0.2,0
		c5.05,0.11,9.08,4.3,8.97,9.36c-0.1,4.95-4.21,8.97-9.16,8.97L1277.08,741.96z"/>
	<path class="st1" d="M1277.27,724.13L1277.27,724.13l0.19,0c2.31,0.05,4.47,1,6.07,2.67c1.6,1.67,2.46,3.87,2.41,6.18
		c-0.1,4.68-3.98,8.48-8.66,8.48l-0.19,0c-2.31-0.05-4.47-1-6.07-2.67c-1.6-1.67-2.46-3.87-2.41-6.18
		C1268.71,727.94,1272.6,724.13,1277.27,724.13 M1277.27,723.13c-5.24,0-9.55,4.19-9.66,9.46c-0.11,5.34,4.12,9.75,9.46,9.87
		c0.07,0,0.14,0,0.21,0c5.24,0,9.55-4.19,9.66-9.46c0.11-5.34-4.12-9.75-9.46-9.87C1277.41,723.13,1277.34,723.13,1277.27,723.13
		L1277.27,723.13z"/>
</g>
<line class="st0" x1="1459.42" y1="-38.6" x2="1524.57" y2="26.49"/>
<line class="st0" x1="1522.91" y1="38.67" x2="1457.82" y2="103.82"/>
<line class="st0" x1="1379.11" y1="40.36" x2="1444.26" y2="105.45"/>
<line class="st0" x1="1445.86" y1="-36.97" x2="1380.77" y2="28.17"/>
<line class="st0" x1="1456" y1="116.88" x2="1521.15" y2="181.97"/>
<line class="st0" x1="1519.49" y1="194.15" x2="1454.4" y2="259.3"/>
<line class="st0" x1="1375.69" y1="195.84" x2="1440.84" y2="260.93"/>
<line class="st0" x1="1442.44" y1="118.51" x2="1377.36" y2="183.65"/>
<line class="st0" x1="1452.59" y1="272.36" x2="1517.73" y2="337.45"/>
<line class="st0" x1="1516.07" y1="349.63" x2="1450.98" y2="414.78"/>
<line class="st0" x1="1372.28" y1="351.32" x2="1437.42" y2="416.41"/>
<line class="st0" x1="1439.03" y1="273.99" x2="1373.94" y2="339.14"/>
<line class="st0" x1="1449.17" y1="427.84" x2="1514.32" y2="492.93"/>
<line class="st0" x1="1512.66" y1="505.12" x2="1447.57" y2="570.26"/>
<line class="st0" x1="1368.86" y1="506.8" x2="1434.01" y2="571.89"/>
<line class="st0" x1="1435.61" y1="429.47" x2="1370.52" y2="494.62"/>
<line class="st0" x1="1445.75" y1="583.32" x2="1510.9" y2="648.41"/>
<line class="st0" x1="1509.24" y1="660.6" x2="1444.15" y2="725.74"/>
<line class="st0" x1="1365.44" y1="662.28" x2="1430.59" y2="727.37"/>
<line class="st0" x1="1432.19" y1="584.95" x2="1367.1" y2="650.1"/>
<line class="st0" x1="1442.33" y1="738.8" x2="1507.48" y2="803.89"/>
<line class="st0" x1="1428.78" y1="740.43" x2="1363.69" y2="805.58"/>
<g>
	<path class="st1" d="M1519.97,508.59c-2.45-0.05-4.73-1.05-6.42-2.82c-1.69-1.77-2.6-4.09-2.55-6.54c0.1-4.95,4.21-8.97,9.16-8.97
		l0.2,0c5.05,0.11,9.08,4.3,8.97,9.36c-0.1,4.95-4.21,8.97-9.16,8.97L1519.97,508.59z"/>
	<path class="st1" d="M1520.16,490.76L1520.16,490.76l0.19,0c2.31,0.05,4.47,1,6.07,2.67c1.6,1.67,2.46,3.87,2.41,6.18
		c-0.1,4.68-3.98,8.48-8.66,8.48l-0.19,0c-2.31-0.05-4.47-1-6.07-2.67c-1.6-1.67-2.46-3.87-2.41-6.18
		C1511.6,494.57,1515.48,490.76,1520.16,490.76 M1520.16,489.76c-5.24,0-9.55,4.19-9.66,9.46c-0.11,5.34,4.12,9.75,9.46,9.87
		c0.07,0,0.14,0,0.21,0c5.24,0,9.55-4.19,9.66-9.46c0.11-5.34-4.12-9.75-9.46-9.87C1520.3,489.76,1520.23,489.76,1520.16,489.76
		L1520.16,489.76z"/>
</g>
<g>
	<path class="st1" d="M1441.92,431c-2.45-0.05-4.73-1.05-6.42-2.82s-2.6-4.09-2.55-6.54c0.1-4.95,4.21-8.97,9.16-8.97l0.2,0
		c5.05,0.11,9.08,4.3,8.97,9.36c-0.1,4.95-4.21,8.97-9.16,8.97L1441.92,431z"/>
	<path class="st1" d="M1442.11,412.17v1l0.19,0c4.78,0.1,8.58,4.07,8.48,8.85c-0.1,4.68-3.98,8.48-8.66,8.48l-0.19,0
		c-2.31-0.05-4.47-1-6.07-2.67c-1.6-1.67-2.46-3.87-2.41-6.18c0.1-4.68,3.98-8.48,8.66-8.48L1442.11,412.17 M1442.11,412.17
		c-5.24,0-9.55,4.19-9.66,9.46c-0.11,5.34,4.12,9.75,9.46,9.87c0.07,0,0.14,0,0.21,0c5.24,0,9.55-4.19,9.66-9.46
		c0.11-5.34-4.12-9.75-9.46-9.87C1442.25,412.17,1442.18,412.17,1442.11,412.17L1442.11,412.17z"/>
</g>
<g>
	<path class="st1" d="M1530.22,42.15c-2.45-0.05-4.73-1.05-6.42-2.82c-1.69-1.77-2.6-4.09-2.55-6.54c0.1-4.95,4.21-8.97,9.16-8.97
		l0.2,0c2.45,0.05,4.73,1.05,6.42,2.82c1.69,1.77,2.6,4.09,2.55,6.54c-0.1,4.95-4.21,8.97-9.16,8.97L1530.22,42.15z"/>
	<path class="st1" d="M1530.41,24.32L1530.41,24.32l0.19,0c2.31,0.05,4.47,1,6.07,2.67c1.6,1.67,2.46,3.87,2.41,6.18
		c-0.1,4.68-3.98,8.48-8.66,8.48l-0.19,0c-4.78-0.1-8.58-4.07-8.48-8.85C1521.85,28.13,1525.73,24.32,1530.41,24.32 M1530.41,23.32
		c-5.24,0-9.55,4.19-9.66,9.46c-0.11,5.34,4.12,9.75,9.46,9.87c0.07,0,0.14,0,0.21,0c5.24,0,9.55-4.19,9.66-9.46
		c0.11-5.34-4.12-9.75-9.46-9.87C1530.55,23.32,1530.48,23.32,1530.41,23.32L1530.41,23.32z"/>
</g>
<g>
	<path class="st1" d="M1526.8,197.63c-5.05-0.11-9.08-4.3-8.97-9.36c0.1-4.95,4.21-8.97,9.16-8.97l0.2,0
		c2.45,0.05,4.73,1.05,6.42,2.82s2.6,4.09,2.55,6.54c-0.1,4.95-4.21,8.97-9.16,8.97L1526.8,197.63z"/>
	<path class="st1" d="M1526.99,179.8L1526.99,179.8l0.19,0c2.31,0.05,4.47,1,6.07,2.67c1.6,1.67,2.46,3.87,2.41,6.18
		c-0.1,4.68-3.98,8.48-8.66,8.48l-0.19,0c-4.78-0.1-8.58-4.07-8.48-8.85C1518.43,183.61,1522.32,179.8,1526.99,179.8 M1526.99,178.8
		c-5.24,0-9.55,4.19-9.66,9.46c-0.11,5.34,4.12,9.75,9.46,9.87c0.07,0,0.14,0,0.21,0c5.24,0,9.55-4.19,9.66-9.46
		c0.11-5.34-4.12-9.75-9.46-9.87C1527.13,178.8,1527.06,178.8,1526.99,178.8L1526.99,178.8z"/>
</g>
<g>
	<path class="st1" d="M1448.75,120.04c-2.45-0.05-4.73-1.05-6.42-2.82c-1.69-1.77-2.6-4.09-2.55-6.54c0.1-4.95,4.21-8.97,9.16-8.97
		l0.2,0c5.05,0.11,9.08,4.3,8.97,9.36c-0.1,4.95-4.21,8.97-9.16,8.97L1448.75,120.04z"/>
	<path class="st1" d="M1448.94,102.21L1448.94,102.21l0.19,0c2.31,0.05,4.47,1,6.07,2.67c1.6,1.67,2.46,3.87,2.41,6.18
		c-0.1,4.68-3.98,8.48-8.66,8.48l-0.19,0c-4.78-0.1-8.58-4.07-8.48-8.85C1440.38,106.02,1444.27,102.21,1448.94,102.21
		 M1448.94,101.21c-5.24,0-9.55,4.19-9.66,9.46c-0.11,5.34,4.12,9.75,9.46,9.87c0.07,0,0.14,0,0.21,0c5.24,0,9.55-4.19,9.66-9.46
		c0.11-5.34-4.12-9.75-9.46-9.87C1449.08,101.21,1449.01,101.21,1448.94,101.21L1448.94,101.21z"/>
</g>
<g>
	<path class="st1" d="M1523.39,353.11c-5.05-0.11-9.08-4.3-8.97-9.36c0.1-4.95,4.21-8.97,9.16-8.97l0.2,0
		c5.05,0.11,9.08,4.3,8.97,9.36c-0.1,4.95-4.21,8.97-9.16,8.97L1523.39,353.11z"/>
	<path class="st1" d="M1523.58,335.28L1523.58,335.28l0.19,0c4.78,0.1,8.58,4.07,8.48,8.85c-0.1,4.68-3.98,8.48-8.66,8.48l-0.19,0
		c-2.31-0.05-4.47-1-6.07-2.67c-1.6-1.67-2.46-3.87-2.41-6.18C1515.02,339.09,1518.9,335.28,1523.58,335.28 M1523.58,334.28
		c-5.24,0-9.55,4.19-9.66,9.46c-0.11,5.34,4.12,9.75,9.46,9.87c0.07,0,0.14,0,0.21,0c5.24,0,9.55-4.19,9.66-9.46
		c0.11-5.34-4.12-9.75-9.46-9.87C1523.71,334.28,1523.65,334.28,1523.58,334.28L1523.58,334.28z"/>
</g>
<g>
	<path class="st1" d="M1445.34,275.52c-2.45-0.05-4.73-1.05-6.42-2.82c-1.69-1.77-2.6-4.09-2.55-6.54c0.1-4.95,4.21-8.97,9.16-8.97
		l0.2,0c2.45,0.05,4.73,1.05,6.42,2.82c1.69,1.77,2.6,4.09,2.55,6.54c-0.1,4.95-4.21,8.97-9.16,8.97L1445.34,275.52z"/>
	<path class="st1" d="M1445.53,256.69v1l0.19,0c2.31,0.05,4.47,1,6.07,2.67c1.6,1.67,2.46,3.87,2.41,6.18
		c-0.1,4.68-3.98,8.48-8.66,8.48l-0.19,0c-2.31-0.05-4.47-1-6.07-2.67c-1.6-1.67-2.46-3.87-2.41-6.18c0.1-4.68,3.98-8.48,8.66-8.48
		L1445.53,256.69 M1445.53,256.69c-5.24,0-9.55,4.19-9.66,9.46c-0.11,5.34,4.12,9.75,9.46,9.87c0.07,0,0.14,0,0.21,0
		c5.24,0,9.55-4.19,9.66-9.46c0.11-5.34-4.12-9.75-9.46-9.87C1445.66,256.69,1445.6,256.69,1445.53,256.69L1445.53,256.69z"/>
</g>
<g>
	<path class="st1" d="M1516.55,664.07c-5.05-0.11-9.08-4.3-8.97-9.36c0.1-4.95,4.21-8.97,9.16-8.97l0.2,0
		c5.05,0.11,9.08,4.3,8.97,9.36c-0.1,4.95-4.21,8.97-9.16,8.97L1516.55,664.07z"/>
	<path class="st1" d="M1516.74,645.24v1l0.19,0c2.31,0.05,4.47,1,6.07,2.67c1.6,1.67,2.46,3.87,2.41,6.18
		c-0.1,4.68-3.98,8.48-8.66,8.48l-0.19,0c-4.78-0.1-8.58-4.07-8.48-8.85c0.1-4.68,3.98-8.48,8.66-8.48L1516.74,645.24
		 M1516.74,645.24c-5.24,0-9.55,4.19-9.66,9.46c-0.11,5.34,4.12,9.75,9.46,9.87c0.07,0,0.14,0,0.21,0c5.24,0,9.55-4.19,9.66-9.46
		c0.11-5.34-4.12-9.75-9.46-9.87C1516.88,645.24,1516.81,645.24,1516.74,645.24L1516.74,645.24z"/>
</g>
<g>
	<path class="st1" d="M1438.5,586.48c-5.05-0.11-9.08-4.3-8.97-9.36c0.1-4.95,4.21-8.97,9.16-8.97l0.2,0
		c5.05,0.11,9.08,4.3,8.97,9.36c-0.1,4.95-4.21,8.97-9.16,8.97L1438.5,586.48z"/>
	<path class="st1" d="M1438.69,567.65v1l0.19,0c4.78,0.1,8.58,4.07,8.48,8.85c-0.1,4.68-3.98,8.48-8.66,8.48l-0.19,0
		c-4.78-0.1-8.58-4.07-8.48-8.85c0.1-4.68,3.98-8.48,8.66-8.48L1438.69,567.65 M1438.69,567.65c-5.24,0-9.55,4.19-9.66,9.46
		c-0.11,5.34,4.12,9.75,9.46,9.87c0.07,0,0.14,0,0.21,0c5.24,0,9.55-4.19,9.66-9.46c0.11-5.34-4.12-9.75-9.46-9.87
		C1438.83,567.65,1438.76,567.65,1438.69,567.65L1438.69,567.65z"/>
</g>
<g>
	<path class="st1" d="M1435.08,741.96c-5.05-0.11-9.08-4.3-8.97-9.36c0.1-4.95,4.21-8.97,9.16-8.97l0.2,0
		c5.05,0.11,9.08,4.3,8.97,9.36c-0.1,4.95-4.21,8.97-9.16,8.97L1435.08,741.96z"/>
	<path class="st1" d="M1435.27,724.13L1435.27,724.13l0.19,0c2.31,0.05,4.47,1,6.07,2.67c1.6,1.67,2.46,3.87,2.41,6.18
		c-0.1,4.68-3.98,8.48-8.66,8.48l-0.19,0c-4.78-0.1-8.58-4.07-8.48-8.85C1426.71,727.94,1430.6,724.13,1435.27,724.13
		 M1435.27,723.13c-5.24,0-9.55,4.19-9.66,9.46c-0.11,5.34,4.12,9.75,9.46,9.87c0.07,0,0.14,0,0.21,0c5.24,0,9.55-4.19,9.66-9.46
		c0.11-5.34-4.12-9.75-9.46-9.87C1435.41,723.13,1435.34,723.13,1435.27,723.13L1435.27,723.13z"/>
</g>
<line class="st0" x1="1617.42" y1="-38.6" x2="1682.57" y2="26.49"/>
<line class="st0" x1="1680.91" y1="38.67" x2="1615.82" y2="103.82"/>
<line class="st0" x1="1537.11" y1="40.36" x2="1602.26" y2="105.45"/>
<line class="st0" x1="1603.86" y1="-36.97" x2="1538.77" y2="28.17"/>
<line class="st0" x1="1614" y1="116.88" x2="1679.15" y2="181.97"/>
<line class="st0" x1="1677.49" y1="194.15" x2="1612.4" y2="259.3"/>
<line class="st0" x1="1533.69" y1="195.84" x2="1598.84" y2="260.93"/>
<line class="st0" x1="1600.44" y1="118.51" x2="1535.36" y2="183.65"/>
<line class="st0" x1="1610.59" y1="272.36" x2="1675.73" y2="337.45"/>
<line class="st0" x1="1674.07" y1="349.63" x2="1608.98" y2="414.78"/>
<line class="st0" x1="1530.28" y1="351.32" x2="1595.42" y2="416.41"/>
<line class="st0" x1="1597.03" y1="273.99" x2="1531.94" y2="339.14"/>
<line class="st0" x1="1607.17" y1="427.84" x2="1672.32" y2="492.93"/>
<line class="st0" x1="1670.66" y1="505.12" x2="1605.57" y2="570.26"/>
<line class="st0" x1="1526.86" y1="506.8" x2="1592.01" y2="571.89"/>
<line class="st0" x1="1593.61" y1="429.47" x2="1528.52" y2="494.62"/>
<line class="st0" x1="1603.75" y1="583.32" x2="1668.9" y2="648.41"/>
<line class="st0" x1="1667.24" y1="660.6" x2="1602.15" y2="725.74"/>
<line class="st0" x1="1523.44" y1="662.28" x2="1588.59" y2="727.37"/>
<line class="st0" x1="1590.19" y1="584.95" x2="1525.1" y2="650.1"/>
<line class="st0" x1="1600.33" y1="738.8" x2="1665.48" y2="803.89"/>
<line class="st0" x1="1586.78" y1="740.43" x2="1521.69" y2="805.58"/>
<g>
	<path class="st1" d="M1677.97,508.59c-2.45-0.05-4.73-1.05-6.42-2.82c-1.69-1.77-2.6-4.09-2.55-6.54c0.1-4.95,4.21-8.97,9.16-8.97
		l0.2,0c5.05,0.11,9.08,4.3,8.97,9.36c-0.1,4.95-4.21,8.97-9.16,8.97L1677.97,508.59z"/>
	<path class="st1" d="M1678.16,490.76L1678.16,490.76l0.19,0c2.31,0.05,4.47,1,6.07,2.67c1.6,1.67,2.46,3.87,2.41,6.18
		c-0.1,4.68-3.98,8.48-8.66,8.48l-0.19,0c-2.31-0.05-4.47-1-6.07-2.67c-1.6-1.67-2.46-3.87-2.41-6.18
		C1669.6,494.57,1673.48,490.76,1678.16,490.76 M1678.16,489.76c-5.24,0-9.55,4.19-9.66,9.46c-0.11,5.34,4.12,9.75,9.46,9.87
		c0.07,0,0.14,0,0.21,0c5.24,0,9.55-4.19,9.66-9.46c0.11-5.34-4.12-9.75-9.46-9.87C1678.3,489.76,1678.23,489.76,1678.16,489.76
		L1678.16,489.76z"/>
</g>
<g>
	<path class="st1" d="M1599.92,431c-2.45-0.05-4.73-1.05-6.42-2.82s-2.6-4.09-2.55-6.54c0.1-4.95,4.21-8.97,9.16-8.97l0.2,0
		c5.05,0.11,9.08,4.3,8.97,9.36c-0.1,4.95-4.21,8.97-9.16,8.97L1599.92,431z"/>
	<path class="st1" d="M1600.11,412.17v1l0.19,0c4.78,0.1,8.58,4.07,8.48,8.85c-0.1,4.68-3.98,8.48-8.66,8.48l-0.19,0
		c-2.31-0.05-4.47-1-6.07-2.67c-1.6-1.67-2.46-3.87-2.41-6.18c0.1-4.68,3.98-8.48,8.66-8.48L1600.11,412.17 M1600.11,412.17
		c-5.24,0-9.55,4.19-9.66,9.46c-0.11,5.34,4.12,9.75,9.46,9.87c0.07,0,0.14,0,0.21,0c5.24,0,9.55-4.19,9.66-9.46
		c0.11-5.34-4.12-9.75-9.46-9.87C1600.25,412.17,1600.18,412.17,1600.11,412.17L1600.11,412.17z"/>
</g>
<g>
	<path class="st1" d="M1688.22,42.15c-2.45-0.05-4.73-1.05-6.42-2.82c-1.69-1.77-2.6-4.09-2.55-6.54c0.1-4.95,4.21-8.97,9.16-8.97
		l0.2,0c2.45,0.05,4.73,1.05,6.42,2.82c1.69,1.77,2.6,4.09,2.55,6.54c-0.1,4.95-4.21,8.97-9.16,8.97L1688.22,42.15z"/>
	<path class="st1" d="M1688.41,24.32L1688.41,24.32l0.19,0c2.31,0.05,4.47,1,6.07,2.67c1.6,1.67,2.46,3.87,2.41,6.18
		c-0.1,4.68-3.98,8.48-8.66,8.48l-0.19,0c-4.78-0.1-8.58-4.07-8.48-8.85C1679.85,28.13,1683.73,24.32,1688.41,24.32 M1688.41,23.32
		c-5.24,0-9.55,4.19-9.66,9.46c-0.11,5.34,4.12,9.75,9.46,9.87c0.07,0,0.14,0,0.21,0c5.24,0,9.55-4.19,9.66-9.46
		c0.11-5.34-4.12-9.75-9.46-9.87C1688.55,23.32,1688.48,23.32,1688.41,23.32L1688.41,23.32z"/>
</g>
<g>
	<path class="st1" d="M1684.8,197.63c-5.05-0.11-9.08-4.3-8.97-9.36c0.1-4.95,4.21-8.97,9.16-8.97l0.2,0
		c2.45,0.05,4.73,1.05,6.42,2.82s2.6,4.09,2.55,6.54c-0.1,4.95-4.21,8.97-9.16,8.97L1684.8,197.63z"/>
	<path class="st1" d="M1684.99,179.8L1684.99,179.8l0.19,0c2.31,0.05,4.47,1,6.07,2.67c1.6,1.67,2.46,3.87,2.41,6.18
		c-0.1,4.68-3.98,8.48-8.66,8.48l-0.19,0c-4.78-0.1-8.58-4.07-8.48-8.85C1676.43,183.61,1680.32,179.8,1684.99,179.8 M1684.99,178.8
		c-5.24,0-9.55,4.19-9.66,9.46c-0.11,5.34,4.12,9.75,9.46,9.87c0.07,0,0.14,0,0.21,0c5.24,0,9.55-4.19,9.66-9.46
		c0.11-5.34-4.12-9.75-9.46-9.87C1685.13,178.8,1685.06,178.8,1684.99,178.8L1684.99,178.8z"/>
</g>
<g>
	<path class="st1" d="M1606.75,120.04c-2.45-0.05-4.73-1.05-6.42-2.82c-1.69-1.77-2.6-4.09-2.55-6.54c0.1-4.95,4.21-8.97,9.16-8.97
		l0.2,0c5.05,0.11,9.08,4.3,8.97,9.36c-0.1,4.95-4.21,8.97-9.16,8.97L1606.75,120.04z"/>
	<path class="st1" d="M1606.94,102.21L1606.94,102.21l0.19,0c2.31,0.05,4.47,1,6.07,2.67c1.6,1.67,2.46,3.87,2.41,6.18
		c-0.1,4.68-3.98,8.48-8.66,8.48l-0.19,0c-4.78-0.1-8.58-4.07-8.48-8.85C1598.38,106.02,1602.27,102.21,1606.94,102.21
		 M1606.94,101.21c-5.24,0-9.55,4.19-9.66,9.46c-0.11,5.34,4.12,9.75,9.46,9.87c0.07,0,0.14,0,0.21,0c5.24,0,9.55-4.19,9.66-9.46
		c0.11-5.34-4.12-9.75-9.46-9.87C1607.08,101.21,1607.01,101.21,1606.94,101.21L1606.94,101.21z"/>
</g>
<g>
	<path class="st1" d="M1681.39,353.11c-5.05-0.11-9.08-4.3-8.97-9.36c0.1-4.95,4.21-8.97,9.16-8.97l0.2,0
		c5.05,0.11,9.08,4.3,8.97,9.36c-0.1,4.95-4.21,8.97-9.16,8.97L1681.39,353.11z"/>
	<path class="st1" d="M1681.58,335.28L1681.58,335.28l0.19,0c4.78,0.1,8.58,4.07,8.48,8.85c-0.1,4.68-3.98,8.48-8.66,8.48l-0.19,0
		c-2.31-0.05-4.47-1-6.07-2.67c-1.6-1.67-2.46-3.87-2.41-6.18C1673.02,339.09,1676.9,335.28,1681.58,335.28 M1681.58,334.28
		c-5.24,0-9.55,4.19-9.66,9.46c-0.11,5.34,4.12,9.75,9.46,9.87c0.07,0,0.14,0,0.21,0c5.24,0,9.55-4.19,9.66-9.46
		c0.11-5.34-4.12-9.75-9.46-9.87C1681.71,334.28,1681.65,334.28,1681.58,334.28L1681.58,334.28z"/>
</g>
<g>
	<path class="st1" d="M1603.34,275.52c-2.45-0.05-4.73-1.05-6.42-2.82c-1.69-1.77-2.6-4.09-2.55-6.54c0.1-4.95,4.21-8.97,9.16-8.97
		l0.2,0c2.45,0.05,4.73,1.05,6.42,2.82c1.69,1.77,2.6,4.09,2.55,6.54c-0.1,4.95-4.21,8.97-9.16,8.97L1603.34,275.52z"/>
	<path class="st1" d="M1603.53,256.69v1l0.19,0c2.31,0.05,4.47,1,6.07,2.67c1.6,1.67,2.46,3.87,2.41,6.18
		c-0.1,4.68-3.98,8.48-8.66,8.48l-0.19,0c-2.31-0.05-4.47-1-6.07-2.67c-1.6-1.67-2.46-3.87-2.41-6.18c0.1-4.68,3.98-8.48,8.66-8.48
		L1603.53,256.69 M1603.53,256.69c-5.24,0-9.55,4.19-9.66,9.46c-0.11,5.34,4.12,9.75,9.46,9.87c0.07,0,0.14,0,0.21,0
		c5.24,0,9.55-4.19,9.66-9.46c0.11-5.34-4.12-9.75-9.46-9.87C1603.66,256.69,1603.6,256.69,1603.53,256.69L1603.53,256.69z"/>
</g>
<g>
	<path class="st1" d="M1674.55,664.07c-5.05-0.11-9.08-4.3-8.97-9.36c0.1-4.95,4.21-8.97,9.16-8.97l0.2,0
		c5.05,0.11,9.08,4.3,8.97,9.36c-0.1,4.95-4.21,8.97-9.16,8.97L1674.55,664.07z"/>
	<path class="st1" d="M1674.74,645.24v1l0.19,0c2.31,0.05,4.47,1,6.07,2.67c1.6,1.67,2.46,3.87,2.41,6.18
		c-0.1,4.68-3.98,8.48-8.66,8.48l-0.19,0c-4.78-0.1-8.58-4.07-8.48-8.85c0.1-4.68,3.98-8.48,8.66-8.48L1674.74,645.24
		 M1674.74,645.24c-5.24,0-9.55,4.19-9.66,9.46c-0.11,5.34,4.12,9.75,9.46,9.87c0.07,0,0.14,0,0.21,0c5.24,0,9.55-4.19,9.66-9.46
		c0.11-5.34-4.12-9.75-9.46-9.87C1674.88,645.24,1674.81,645.24,1674.74,645.24L1674.74,645.24z"/>
</g>
<g>
	<path class="st1" d="M1596.5,586.48c-5.05-0.11-9.08-4.3-8.97-9.36c0.1-4.95,4.21-8.97,9.16-8.97l0.2,0
		c5.05,0.11,9.08,4.3,8.97,9.36c-0.1,4.95-4.21,8.97-9.16,8.97L1596.5,586.48z"/>
	<path class="st1" d="M1596.69,567.65v1l0.19,0c4.78,0.1,8.58,4.07,8.48,8.85c-0.1,4.68-3.98,8.48-8.66,8.48l-0.19,0
		c-4.78-0.1-8.58-4.07-8.48-8.85c0.1-4.68,3.98-8.48,8.66-8.48L1596.69,567.65 M1596.69,567.65c-5.24,0-9.55,4.19-9.66,9.46
		c-0.11,5.34,4.12,9.75,9.46,9.87c0.07,0,0.14,0,0.21,0c5.24,0,9.55-4.19,9.66-9.46c0.11-5.34-4.12-9.75-9.46-9.87
		C1596.83,567.65,1596.76,567.65,1596.69,567.65L1596.69,567.65z"/>
</g>
<g>
	<path class="st1" d="M1593.08,741.96c-5.05-0.11-9.08-4.3-8.97-9.36c0.1-4.95,4.21-8.97,9.16-8.97l0.2,0
		c5.05,0.11,9.08,4.3,8.97,9.36c-0.1,4.95-4.21,8.97-9.16,8.97L1593.08,741.96z"/>
	<path class="st1" d="M1593.27,724.13L1593.27,724.13l0.19,0c2.31,0.05,4.47,1,6.07,2.67c1.6,1.67,2.46,3.87,2.41,6.18
		c-0.1,4.68-3.98,8.48-8.66,8.48l-0.19,0c-4.78-0.1-8.58-4.07-8.48-8.85C1584.71,727.94,1588.6,724.13,1593.27,724.13
		 M1593.27,723.13c-5.24,0-9.55,4.19-9.66,9.46c-0.11,5.34,4.12,9.75,9.46,9.87c0.07,0,0.14,0,0.21,0c5.24,0,9.55-4.19,9.66-9.46
		c0.11-5.34-4.12-9.75-9.46-9.87C1593.41,723.13,1593.34,723.13,1593.27,723.13L1593.27,723.13z"/>
</g>
<g>
	<path class="st1" d="M417.98,659.8c-2.45-0.05-4.73-1.05-6.42-2.82c-1.69-1.77-2.6-4.09-2.55-6.54c0.1-4.95,4.21-8.97,9.16-8.97
		l0.2,0c5.05,0.11,9.08,4.3,8.97,9.36c-0.1,4.95-4.21,8.97-9.16,8.97L417.98,659.8z"/>
	<path class="st1" d="M418.17,641.97L418.17,641.97l0.19,0c2.31,0.05,4.47,1,6.07,2.67c1.6,1.67,2.46,3.87,2.41,6.18
		c-0.1,4.68-3.98,8.48-8.66,8.48l-0.19,0c-2.31-0.05-4.47-1-6.07-2.67c-1.6-1.67-2.46-3.87-2.41-6.18
		C409.61,645.78,413.5,641.97,418.17,641.97 M418.17,640.97c-5.24,0-9.55,4.19-9.66,9.46c-0.11,5.34,4.12,9.75,9.46,9.87
		c0.07,0,0.14,0,0.21,0c5.24,0,9.55-4.19,9.66-9.46c0.11-5.34-4.12-9.75-9.46-9.87C418.31,640.97,418.24,640.97,418.17,640.97
		L418.17,640.97z"/>
</g>
<g>
	<path class="st1" d="M339.93,582.21c-5.05-0.11-9.08-4.3-8.97-9.36c0.1-4.95,4.21-8.97,9.16-8.97l0.2,0
		c5.05,0.11,9.08,4.3,8.97,9.36c-0.1,4.95-4.21,8.97-9.16,8.97L339.93,582.21z"/>
	<path class="st1" d="M340.12,563.38v1l0.19,0c2.31,0.05,4.47,1,6.07,2.67c1.6,1.67,2.46,3.87,2.41,6.18
		c-0.1,4.68-3.98,8.48-8.66,8.48l-0.19,0c-2.31-0.05-4.47-1-6.07-2.67c-1.6-1.67-2.46-3.87-2.41-6.18c0.1-4.68,3.98-8.48,8.66-8.48
		L340.12,563.38 M340.12,563.38c-5.24,0-9.55,4.19-9.66,9.46c-0.11,5.34,4.12,9.75,9.46,9.87c0.07,0,0.14,0,0.21,0
		c5.24,0,9.55-4.19,9.66-9.46c0.11-5.34-4.12-9.75-9.46-9.87C340.26,563.38,340.19,563.38,340.12,563.38L340.12,563.38z"/>
</g>
<g>
	<path class="st1" d="M1120.75,741.11c-2.45-0.05-4.73-1.05-6.42-2.82s-2.6-4.09-2.55-6.54c0.1-4.95,4.21-8.97,9.16-8.97l0.2,0
		c5.05,0.11,9.08,4.3,8.97,9.36c-0.1,4.95-4.21,8.97-9.16,8.97L1120.75,741.11z"/>
	<path class="st1" d="M1120.94,722.28v1l0.19,0c2.31,0.05,4.47,1,6.07,2.67c1.6,1.67,2.46,3.87,2.41,6.18
		c-0.1,4.68-3.98,8.48-8.66,8.48l-0.19,0c-4.78-0.1-8.58-4.07-8.48-8.85c0.1-4.68,3.98-8.48,8.66-8.48L1120.94,722.28
		 M1120.94,722.28c-5.24,0-9.55,4.19-9.66,9.46c-0.11,5.34,4.12,9.75,9.46,9.87c0.07,0,0.14,0,0.21,0c5.24,0,9.55-4.19,9.66-9.46
		c0.11-5.34-4.12-9.75-9.46-9.87C1121.08,722.28,1121.01,722.28,1120.94,722.28L1120.94,722.28z"/>
</g>
<g>
	<path class="st1" d="M962.71,740.25c-5.05-0.11-9.08-4.3-8.97-9.36c0.1-4.95,4.21-8.97,9.16-8.97l0.2,0
		c5.05,0.11,9.08,4.3,8.97,9.36c-0.1,4.95-4.21,8.97-9.16,8.97L962.71,740.25z"/>
	<path class="st1" d="M962.9,721.42v1l0.19,0c4.78,0.1,8.58,4.07,8.48,8.85c-0.1,4.68-3.98,8.48-8.66,8.48l-0.19,0
		c-2.31-0.05-4.47-1-6.07-2.67c-1.6-1.67-2.46-3.87-2.41-6.18c0.1-4.68,3.98-8.48,8.66-8.48L962.9,721.42 M962.9,721.42
		c-5.24,0-9.55,4.19-9.66,9.46c-0.11,5.34,4.12,9.75,9.46,9.87c0.07,0,0.14,0,0.21,0c5.24,0,9.55-4.19,9.66-9.46
		c0.11-5.34-4.12-9.75-9.46-9.87C963.03,721.42,962.97,721.42,962.9,721.42L962.9,721.42z"/>
</g>
<g>
	<path class="st1" d="M805.52,740.25c-2.45-0.05-4.73-1.05-6.42-2.82s-2.6-4.09-2.55-6.54c0.1-4.95,4.21-8.97,9.16-8.97l0.2,0
		c5.05,0.11,9.08,4.3,8.97,9.36c-0.1,4.95-4.21,8.97-9.16,8.97L805.52,740.25z"/>
	<path class="st1" d="M805.71,721.42v1l0.19,0c4.78,0.1,8.58,4.07,8.48,8.85c-0.1,4.68-3.98,8.48-8.66,8.48l-0.19,0
		c-2.31-0.05-4.47-1-6.07-2.67c-1.6-1.67-2.46-3.87-2.41-6.18c0.1-4.68,3.98-8.48,8.66-8.48L805.71,721.42 M805.71,721.42
		c-5.24,0-9.55,4.19-9.66,9.46c-0.11,5.34,4.12,9.75,9.46,9.87c0.07,0,0.14,0,0.21,0c5.24,0,9.55-4.19,9.66-9.46
		c0.11-5.34-4.12-9.75-9.46-9.87C805.85,721.42,805.78,721.42,805.71,721.42L805.71,721.42z"/>
</g>
<g>
	<path class="st1" d="M649.18,739.4c-5.05-0.11-9.08-4.3-8.97-9.36c0.1-4.95,4.21-8.97,9.16-8.97l0.2,0
		c2.45,0.05,4.73,1.05,6.42,2.82s2.6,4.09,2.55,6.54c-0.1,4.95-4.21,8.97-9.16,8.97L649.18,739.4z"/>
	<path class="st1" d="M649.37,721.57L649.37,721.57l0.19,0c2.31,0.05,4.47,1,6.07,2.67c1.6,1.67,2.46,3.87,2.41,6.18
		c-0.1,4.68-3.98,8.48-8.66,8.48l-0.19,0c-2.31-0.05-4.47-1-6.07-2.67c-1.6-1.67-2.46-3.87-2.41-6.18
		C640.81,725.37,644.7,721.57,649.37,721.57 M649.37,720.57c-5.24,0-9.55,4.19-9.66,9.46c-0.11,5.34,4.12,9.75,9.46,9.87
		c0.07,0,0.14,0,0.21,0c5.24,0,9.55-4.19,9.66-9.46c0.11-5.34-4.12-9.75-9.46-9.87C649.51,720.57,649.44,720.57,649.37,720.57
		L649.37,720.57z"/>
</g>
<g>
	<path class="st1" d="M492.85,738.54c-5.05-0.11-9.08-4.3-8.97-9.36c0.1-4.95,4.21-8.97,9.16-8.97l0.2,0
		c2.45,0.05,4.73,1.05,6.42,2.82s2.6,4.09,2.55,6.54c-0.1,4.95-4.21,8.97-9.16,8.97L492.85,738.54z"/>
	<path class="st1" d="M493.04,719.71v1l0.19,0c4.78,0.1,8.58,4.07,8.48,8.85c-0.1,4.68-3.98,8.48-8.66,8.48l-0.19,0
		c-4.78-0.1-8.58-4.07-8.48-8.85c0.1-4.68,3.98-8.48,8.66-8.48L493.04,719.71 M493.04,719.71c-5.24,0-9.55,4.19-9.66,9.46
		c-0.11,5.34,4.12,9.75,9.46,9.87c0.07,0,0.14,0,0.21,0c5.24,0,9.55-4.19,9.66-9.46c0.11-5.34-4.12-9.75-9.46-9.87
		C493.18,719.72,493.11,719.71,493.04,719.71L493.04,719.71z"/>
</g>
<g>
	<path class="st1" d="M336.51,737.69c-2.45-0.05-4.73-1.05-6.42-2.82c-1.69-1.77-2.6-4.09-2.55-6.54c0.1-4.95,4.21-8.97,9.16-8.97
		l0.2,0c5.05,0.11,9.08,4.3,8.97,9.36c-0.1,4.95-4.21,8.97-9.16,8.97L336.51,737.69z"/>
	<path class="st1" d="M336.7,719.86L336.7,719.86l0.19,0c2.31,0.05,4.47,1,6.07,2.67c1.6,1.67,2.46,3.87,2.41,6.18
		c-0.1,4.68-3.98,8.48-8.66,8.48l-0.19,0c-2.31-0.05-4.47-1-6.07-2.67c-1.6-1.67-2.46-3.87-2.41-6.18
		C328.14,723.67,332.03,719.86,336.7,719.86 M336.7,718.86c-5.24,0-9.55,4.19-9.66,9.46c-0.11,5.34,4.12,9.75,9.46,9.87
		c0.07,0,0.14,0,0.21,0c5.24,0,9.55-4.19,9.66-9.46c0.11-5.34-4.12-9.75-9.46-9.87C336.84,718.86,336.77,718.86,336.7,718.86
		L336.7,718.86z"/>
</g>
<g>
	<path class="st1" d="M1201.36,664.07c-5.05-0.11-9.08-4.3-8.97-9.36c0.1-4.95,4.21-8.97,9.16-8.97l0.2,0
		c5.05,0.11,9.08,4.3,8.97,9.36c-0.1,4.95-4.21,8.97-9.16,8.97L1201.36,664.07z"/>
	<path class="st1" d="M1201.55,645.24v1l0.19,0c2.31,0.05,4.47,1,6.07,2.67c1.6,1.67,2.46,3.87,2.41,6.18
		c-0.1,4.68-3.98,8.48-8.66,8.48l-0.19,0c-2.31-0.05-4.47-1-6.07-2.67c-1.6-1.67-2.46-3.87-2.41-6.18c0.1-4.68,3.98-8.48,8.66-8.48
		L1201.55,645.24 M1201.55,645.24c-5.24,0-9.55,4.19-9.66,9.46c-0.11,5.34,4.12,9.75,9.46,9.87c0.07,0,0.14,0,0.21,0
		c5.24,0,9.55-4.19,9.66-9.46c0.11-5.34-4.12-9.75-9.46-9.87C1201.69,645.24,1201.62,645.24,1201.55,645.24L1201.55,645.24z"/>
</g>
<line class="st0" x1="343.76" y1="734.53" x2="408.91" y2="799.62"/>
<line class="st0" x1="487.39" y1="736.16" x2="422.31" y2="801.3"/>
<line class="st0" x1="331.06" y1="735.3" x2="265.97" y2="800.45"/>
<line class="st0" x1="202.85" y1="-42.87" x2="268" y2="22.22"/>
<line class="st0" x1="266.34" y1="34.4" x2="201.25" y2="99.55"/>
<line class="st0" x1="123.4" y1="35.24" x2="188.54" y2="100.32"/>
<line class="st0" x1="190.14" y1="-42.1" x2="125.06" y2="23.05"/>
<line class="st0" x1="199.43" y1="112.61" x2="264.58" y2="177.7"/>
<line class="st0" x1="262.92" y1="189.88" x2="197.83" y2="255.03"/>
<line class="st0" x1="119.98" y1="190.72" x2="185.13" y2="255.8"/>
<line class="st0" x1="186.73" y1="113.38" x2="121.64" y2="178.53"/>
<line class="st0" x1="196.02" y1="268.09" x2="261.16" y2="333.18"/>
<line class="st0" x1="259.5" y1="345.36" x2="194.41" y2="410.51"/>
<line class="st0" x1="116.56" y1="346.2" x2="181.71" y2="411.28"/>
<line class="st0" x1="183.31" y1="268.86" x2="118.22" y2="334.01"/>
<line class="st0" x1="192.6" y1="423.57" x2="257.75" y2="488.66"/>
<line class="st0" x1="256.08" y1="500.84" x2="191" y2="565.99"/>
<line class="st0" x1="113.14" y1="501.68" x2="178.29" y2="566.76"/>
<line class="st0" x1="179.89" y1="424.34" x2="114.81" y2="489.49"/>
<line class="st0" x1="189.18" y1="579.05" x2="254.33" y2="644.14"/>
<line class="st0" x1="252.67" y1="656.32" x2="187.58" y2="721.47"/>
<line class="st0" x1="109.73" y1="657.16" x2="174.87" y2="722.24"/>
<line class="st0" x1="176.48" y1="579.82" x2="111.39" y2="644.97"/>
<g>
	<path class="st1" d="M266.82,348.84c-5.05-0.11-9.08-4.3-8.97-9.36c0.1-4.95,4.21-8.97,9.16-8.97l0.2,0
		c5.05,0.11,9.08,4.3,8.97,9.36c-0.1,4.95-4.21,8.97-9.16,8.97L266.82,348.84z"/>
	<path class="st1" d="M267.01,330.01v1l0.19,0c4.78,0.1,8.58,4.07,8.48,8.85c-0.1,4.68-3.98,8.48-8.66,8.48l-0.19,0
		c-2.31-0.05-4.47-1-6.07-2.67c-1.6-1.67-2.46-3.87-2.41-6.18c0.1-4.68,3.98-8.48,8.66-8.48L267.01,330.01 M267.01,330.01
		c-5.24,0-9.55,4.19-9.66,9.46c-0.11,5.34,4.12,9.75,9.46,9.87c0.07,0,0.14,0,0.21,0c5.24,0,9.55-4.19,9.66-9.46
		c0.11-5.34-4.12-9.75-9.46-9.87C267.14,330.01,267.08,330.01,267.01,330.01L267.01,330.01z"/>
</g>
<g>
	<path class="st1" d="M188.77,271.25c-2.45-0.05-4.73-1.05-6.42-2.82c-1.69-1.77-2.6-4.09-2.55-6.54c0.1-4.95,4.21-8.97,9.16-8.97
		l0.2,0c5.05,0.11,9.08,4.3,8.97,9.36c-0.1,4.95-4.21,8.97-9.16,8.97L188.77,271.25z"/>
	<path class="st1" d="M188.96,253.42L188.96,253.42l0.19,0c2.31,0.05,4.47,1,6.07,2.67c1.6,1.67,2.46,3.87,2.41,6.18
		c-0.1,4.68-3.98,8.48-8.66,8.48l-0.19,0c-4.78-0.1-8.58-4.07-8.48-8.85C180.39,257.22,184.28,253.42,188.96,253.42 M188.96,252.42
		c-5.24,0-9.55,4.19-9.66,9.46c-0.11,5.34,4.12,9.75,9.46,9.87c0.07,0,0.14,0,0.21,0c5.24,0,9.55-4.19,9.66-9.46
		c0.11-5.34-4.12-9.75-9.46-9.87C189.09,252.42,189.02,252.42,188.96,252.42L188.96,252.42z"/>
</g>
<g>
	<path class="st1" d="M273.65,37.88c-5.05-0.11-9.08-4.3-8.97-9.36c0.1-4.95,4.21-8.97,9.16-8.97l0.2,0
		c2.45,0.05,4.73,1.05,6.42,2.82c1.69,1.77,2.6,4.09,2.55,6.54c-0.1,4.95-4.21,8.97-9.16,8.97L273.65,37.88z"/>
	<path class="st1" d="M273.84,20.05L273.84,20.05l0.19,0c4.78,0.1,8.58,4.07,8.48,8.85c-0.1,4.68-3.98,8.48-8.66,8.48l-0.19,0
		c-4.78-0.1-8.58-4.07-8.48-8.85C265.28,23.86,269.16,20.05,273.84,20.05 M273.84,19.05c-5.24,0-9.55,4.19-9.66,9.46
		c-0.11,5.34,4.12,9.75,9.46,9.87c0.07,0,0.14,0,0.21,0c5.24,0,9.55-4.19,9.66-9.46c0.11-5.34-4.12-9.75-9.46-9.87
		C273.98,19.05,273.91,19.05,273.84,19.05L273.84,19.05z"/>
</g>
<g>
	<path class="st1" d="M270.23,193.36c-2.45-0.05-4.73-1.05-6.42-2.82s-2.6-4.09-2.55-6.54c0.1-4.95,4.21-8.97,9.16-8.97l0.2,0
		c2.45,0.05,4.73,1.05,6.42,2.82c1.69,1.77,2.6,4.09,2.55,6.54c-0.1,4.95-4.21,8.97-9.16,8.97L270.23,193.36z"/>
	<path class="st1" d="M270.42,175.53L270.42,175.53l0.19,0c2.31,0.05,4.47,1,6.07,2.67c1.6,1.67,2.46,3.87,2.41,6.18
		c-0.1,4.68-3.98,8.48-8.66,8.48l-0.19,0c-4.78-0.1-8.58-4.07-8.48-8.85C261.86,179.34,265.75,175.53,270.42,175.53 M270.42,174.53
		c-5.24,0-9.55,4.19-9.66,9.46c-0.11,5.34,4.12,9.75,9.46,9.87c0.07,0,0.14,0,0.21,0c5.24,0,9.55-4.19,9.66-9.46
		c0.11-5.34-4.12-9.75-9.46-9.87C270.56,174.53,270.49,174.53,270.42,174.53L270.42,174.53z"/>
</g>
<g>
	<path class="st1" d="M192.18,115.77c-5.05-0.11-9.08-4.3-8.97-9.36c0.1-4.95,4.21-8.97,9.16-8.97l0.2,0
		c5.05,0.11,9.08,4.3,8.97,9.36c-0.1,4.95-4.21,8.97-9.16,8.97L192.18,115.77z"/>
	<path class="st1" d="M192.37,97.94L192.37,97.94l0.19,0c4.78,0.1,8.58,4.07,8.48,8.85c-0.1,4.68-3.98,8.48-8.66,8.48l-0.19,0
		c-4.78-0.1-8.58-4.07-8.48-8.85C183.81,101.74,187.7,97.94,192.37,97.94 M192.37,96.94c-5.24,0-9.55,4.19-9.66,9.46
		c-0.11,5.34,4.12,9.75,9.46,9.87c0.07,0,0.14,0,0.21,0c5.24,0,9.55-4.19,9.66-9.46c0.11-5.34-4.12-9.75-9.46-9.87
		C192.51,96.94,192.44,96.94,192.37,96.94L192.37,96.94z"/>
</g>
<g>
	<path class="st1" d="M263.4,504.32c-2.45-0.05-4.73-1.05-6.42-2.82s-2.6-4.09-2.55-6.54c0.1-4.95,4.21-8.97,9.16-8.97l0.2,0
		c2.45,0.05,4.73,1.05,6.42,2.82c1.69,1.77,2.6,4.09,2.55,6.54c-0.1,4.95-4.21,8.97-9.16,8.97L263.4,504.32z"/>
	<path class="st1" d="M263.59,486.49L263.59,486.49l0.19,0c2.31,0.05,4.47,1,6.07,2.67c1.6,1.67,2.46,3.87,2.41,6.18
		c-0.1,4.68-3.98,8.48-8.66,8.48l-0.19,0c-2.31-0.05-4.47-1-6.07-2.67c-1.6-1.67-2.46-3.87-2.41-6.18
		C255.03,490.3,258.91,486.49,263.59,486.49 M263.59,485.49c-5.24,0-9.55,4.19-9.66,9.46c-0.11,5.34,4.12,9.75,9.46,9.87
		c0.07,0,0.14,0,0.21,0c5.24,0,9.55-4.19,9.66-9.46c0.11-5.34-4.12-9.75-9.46-9.87C263.73,485.49,263.66,485.49,263.59,485.49
		L263.59,485.49z"/>
</g>
<g>
	<path class="st1" d="M185.35,426.73c-2.45-0.05-4.73-1.05-6.42-2.82c-1.69-1.77-2.6-4.09-2.55-6.54c0.1-4.95,4.21-8.97,9.16-8.97
		l0.2,0c5.05,0.11,9.08,4.3,8.97,9.36c-0.1,4.95-4.21,8.97-9.16,8.97L185.35,426.73z"/>
	<path class="st1" d="M185.54,408.9L185.54,408.9l0.19,0c4.78,0.1,8.58,4.07,8.48,8.85c-0.1,4.68-3.98,8.48-8.66,8.48l-0.19,0
		c-4.78-0.1-8.58-4.07-8.48-8.85C176.98,412.71,180.86,408.9,185.54,408.9 M185.54,407.9c-5.24,0-9.55,4.19-9.66,9.46
		c-0.11,5.34,4.12,9.75,9.46,9.87c0.07,0,0.14,0,0.21,0c5.24,0,9.55-4.19,9.66-9.46c0.11-5.34-4.12-9.75-9.46-9.87
		C185.68,407.9,185.61,407.9,185.54,407.9L185.54,407.9z"/>
</g>
<g>
	<path class="st1" d="M259.98,659.8c-2.45-0.05-4.73-1.05-6.42-2.82c-1.69-1.77-2.6-4.09-2.55-6.54c0.1-4.95,4.21-8.97,9.16-8.97
		l0.2,0c5.05,0.11,9.08,4.3,8.97,9.36c-0.1,4.95-4.21,8.97-9.16,8.97L259.98,659.8z"/>
	<path class="st1" d="M260.17,641.97L260.17,641.97l0.19,0c2.31,0.05,4.47,1,6.07,2.67c1.6,1.67,2.46,3.87,2.41,6.18
		c-0.1,4.68-3.98,8.48-8.66,8.48l-0.19,0c-2.31-0.05-4.47-1-6.07-2.67c-1.6-1.67-2.46-3.87-2.41-6.18
		C251.61,645.78,255.5,641.97,260.17,641.97 M260.17,640.97c-5.24,0-9.55,4.19-9.66,9.46c-0.11,5.34,4.12,9.75,9.46,9.87
		c0.07,0,0.14,0,0.21,0c5.24,0,9.55-4.19,9.66-9.46c0.11-5.34-4.12-9.75-9.46-9.87C260.31,640.97,260.24,640.97,260.17,640.97
		L260.17,640.97z"/>
</g>
<g>
	<path class="st1" d="M181.93,582.21c-5.05-0.11-9.08-4.3-8.97-9.36c0.1-4.95,4.21-8.97,9.16-8.97l0.2,0
		c5.05,0.11,9.08,4.3,8.97,9.36c-0.1,4.95-4.21,8.97-9.16,8.97L181.93,582.21z"/>
	<path class="st1" d="M182.12,563.38v1l0.19,0c2.31,0.05,4.47,1,6.07,2.67c1.6,1.67,2.46,3.87,2.41,6.18
		c-0.1,4.68-3.98,8.48-8.66,8.48l-0.19,0c-2.31-0.05-4.47-1-6.07-2.67c-1.6-1.67-2.46-3.87-2.41-6.18c0.1-4.68,3.98-8.48,8.66-8.48
		L182.12,563.38 M182.12,563.38c-5.24,0-9.55,4.19-9.66,9.46c-0.11,5.34,4.12,9.75,9.46,9.87c0.07,0,0.14,0,0.21,0
		c5.24,0,9.55-4.19,9.66-9.46c0.11-5.34-4.12-9.75-9.46-9.87C182.26,563.38,182.19,563.38,182.12,563.38L182.12,563.38z"/>
</g>
<g>
	<path class="st1" d="M178.51,737.69c-2.45-0.05-4.73-1.05-6.42-2.82c-1.69-1.77-2.6-4.09-2.55-6.54c0.1-4.95,4.21-8.97,9.16-8.97
		l0.2,0c5.05,0.11,9.08,4.3,8.97,9.36c-0.1,4.95-4.21,8.97-9.16,8.97L178.51,737.69z"/>
	<path class="st1" d="M178.7,719.86L178.7,719.86l0.19,0c2.31,0.05,4.47,1,6.07,2.67c1.6,1.67,2.46,3.87,2.41,6.18
		c-0.1,4.68-3.98,8.48-8.66,8.48l-0.19,0c-2.31-0.05-4.47-1-6.07-2.67c-1.6-1.67-2.46-3.87-2.41-6.18
		C170.14,723.67,174.03,719.86,178.7,719.86 M178.7,718.86c-5.24,0-9.55,4.19-9.66,9.46c-0.11,5.34,4.12,9.75,9.46,9.87
		c0.07,0,0.14,0,0.21,0c5.24,0,9.55-4.19,9.66-9.46c0.11-5.34-4.12-9.75-9.46-9.87C178.84,718.86,178.77,718.86,178.7,718.86
		L178.7,718.86z"/>
</g>
<line class="st0" x1="185.76" y1="734.53" x2="250.91" y2="799.62"/>
<line class="st0" x1="173.06" y1="735.3" x2="107.97" y2="800.45"/>
<line class="st0" x1="44.85" y1="-42.87" x2="110" y2="22.22"/>
<line class="st0" x1="108.34" y1="34.4" x2="43.25" y2="99.55"/>
<line class="st0" x1="-34.6" y1="35.24" x2="30.54" y2="100.32"/>
<line class="st0" x1="32.14" y1="-42.1" x2="-32.94" y2="23.05"/>
<line class="st0" x1="41.43" y1="112.61" x2="106.58" y2="177.7"/>
<line class="st0" x1="104.92" y1="189.88" x2="39.83" y2="255.03"/>
<line class="st0" x1="-38.02" y1="190.72" x2="27.13" y2="255.8"/>
<line class="st0" x1="28.73" y1="113.38" x2="-36.36" y2="178.53"/>
<line class="st0" x1="38.02" y1="268.09" x2="103.16" y2="333.18"/>
<line class="st0" x1="101.5" y1="345.36" x2="36.41" y2="410.51"/>
<line class="st0" x1="-41.44" y1="346.2" x2="23.71" y2="411.28"/>
<line class="st0" x1="25.31" y1="268.86" x2="-39.78" y2="334.01"/>
<line class="st0" x1="34.6" y1="423.57" x2="99.75" y2="488.66"/>
<line class="st0" x1="98.08" y1="500.84" x2="33" y2="565.99"/>
<line class="st0" x1="-44.86" y1="501.68" x2="20.29" y2="566.76"/>
<line class="st0" x1="21.89" y1="424.34" x2="-43.19" y2="489.49"/>
<line class="st0" x1="31.18" y1="579.05" x2="96.33" y2="644.14"/>
<line class="st0" x1="94.67" y1="656.32" x2="29.58" y2="721.47"/>
<line class="st0" x1="-48.27" y1="657.16" x2="16.87" y2="722.24"/>
<line class="st0" x1="18.48" y1="579.82" x2="-46.61" y2="644.97"/>
<g>
	<path class="st1" d="M108.82,348.84c-5.05-0.11-9.08-4.3-8.97-9.36c0.1-4.95,4.21-8.97,9.16-8.97l0.2,0
		c5.05,0.11,9.08,4.3,8.97,9.36c-0.1,4.95-4.21,8.97-9.16,8.97L108.82,348.84z"/>
	<path class="st1" d="M109.01,330.01v1l0.19,0c4.78,0.1,8.58,4.07,8.48,8.85c-0.1,4.68-3.98,8.48-8.66,8.48l-0.19,0
		c-2.31-0.05-4.47-1-6.07-2.67c-1.6-1.67-2.46-3.87-2.41-6.18c0.1-4.68,3.98-8.48,8.66-8.48L109.01,330.01 M109.01,330.01
		c-5.24,0-9.55,4.19-9.66,9.46c-0.11,5.34,4.12,9.75,9.46,9.87c0.07,0,0.14,0,0.21,0c5.24,0,9.55-4.19,9.66-9.46
		c0.11-5.34-4.12-9.75-9.46-9.87C109.14,330.01,109.08,330.01,109.01,330.01L109.01,330.01z"/>
</g>
<g>
	<path class="st1" d="M30.77,271.25c-2.45-0.05-4.73-1.05-6.42-2.82c-1.69-1.77-2.6-4.09-2.55-6.54c0.1-4.95,4.21-8.97,9.16-8.97
		l0.2,0c5.05,0.11,9.08,4.3,8.97,9.36c-0.1,4.95-4.21,8.97-9.16,8.97L30.77,271.25z"/>
	<path class="st1" d="M30.96,253.42L30.96,253.42l0.19,0c2.31,0.05,4.47,1,6.07,2.67c1.6,1.67,2.46,3.87,2.41,6.18
		c-0.1,4.68-3.98,8.48-8.66,8.48l-0.19,0c-2.31-0.05-4.47-1-6.07-2.67c-1.6-1.67-2.46-3.87-2.41-6.18
		C22.39,257.22,26.28,253.42,30.96,253.42 M30.96,252.42c-5.24,0-9.55,4.19-9.66,9.46c-0.11,5.34,4.12,9.75,9.46,9.87
		c0.07,0,0.14,0,0.21,0c5.24,0,9.55-4.19,9.66-9.46c0.11-5.34-4.12-9.75-9.46-9.87C31.09,252.42,31.02,252.42,30.96,252.42
		L30.96,252.42z"/>
</g>
<g>
	<path class="st1" d="M115.65,37.88c-5.05-0.11-9.08-4.3-8.97-9.36c0.1-4.95,4.21-8.97,9.16-8.97l0.2,0
		c2.45,0.05,4.73,1.05,6.42,2.82c1.69,1.77,2.6,4.09,2.55,6.54c-0.1,4.95-4.21,8.97-9.16,8.97L115.65,37.88z"/>
	<path class="st1" d="M115.84,20.05L115.84,20.05l0.19,0c4.78,0.1,8.58,4.07,8.48,8.85c-0.1,4.68-3.98,8.48-8.66,8.48l-0.19,0
		c-4.78-0.1-8.58-4.07-8.48-8.85C107.28,23.86,111.16,20.05,115.84,20.05 M115.84,19.05c-5.24,0-9.55,4.19-9.66,9.46
		c-0.11,5.34,4.12,9.75,9.46,9.87c0.07,0,0.14,0,0.21,0c5.24,0,9.55-4.19,9.66-9.46c0.11-5.34-4.12-9.75-9.46-9.87
		C115.98,19.05,115.91,19.05,115.84,19.05L115.84,19.05z"/>
</g>
<g>
	<path class="st1" d="M112.23,193.36c-2.45-0.05-4.73-1.05-6.42-2.82s-2.6-4.09-2.55-6.54c0.1-4.95,4.21-8.97,9.16-8.97l0.2,0
		c2.45,0.05,4.73,1.05,6.42,2.82c1.69,1.77,2.6,4.09,2.55,6.54c-0.1,4.95-4.21,8.97-9.16,8.97L112.23,193.36z"/>
	<path class="st1" d="M112.42,175.53L112.42,175.53l0.19,0c2.31,0.05,4.47,1,6.07,2.67c1.6,1.67,2.46,3.87,2.41,6.18
		c-0.1,4.68-3.98,8.48-8.66,8.48l-0.19,0c-4.78-0.1-8.58-4.07-8.48-8.85C103.86,179.34,107.75,175.53,112.42,175.53 M112.42,174.53
		c-5.24,0-9.55,4.19-9.66,9.46c-0.11,5.34,4.12,9.75,9.46,9.87c0.07,0,0.14,0,0.21,0c5.24,0,9.55-4.19,9.66-9.46
		c0.11-5.34-4.12-9.75-9.46-9.87C112.56,174.53,112.49,174.53,112.42,174.53L112.42,174.53z"/>
</g>
<g>
	<path class="st1" d="M34.18,115.77c-5.05-0.11-9.08-4.3-8.97-9.36c0.1-4.95,4.21-8.97,9.16-8.97l0.2,0
		c5.05,0.11,9.08,4.3,8.97,9.36c-0.1,4.95-4.21,8.97-9.16,8.97L34.18,115.77z"/>
	<path class="st1" d="M34.37,97.94L34.37,97.94l0.19,0c4.78,0.1,8.58,4.07,8.48,8.85c-0.1,4.68-3.98,8.48-8.66,8.48l-0.19,0
		c-2.31-0.05-4.47-1-6.07-2.67c-1.6-1.67-2.46-3.87-2.41-6.18C25.81,101.74,29.7,97.94,34.37,97.94 M34.37,96.94
		c-5.24,0-9.55,4.19-9.66,9.46c-0.11,5.34,4.12,9.75,9.46,9.87c0.07,0,0.14,0,0.21,0c5.24,0,9.55-4.19,9.66-9.46
		c0.11-5.34-4.12-9.75-9.46-9.87C34.51,96.94,34.44,96.94,34.37,96.94L34.37,96.94z"/>
</g>
<g>
	<path class="st1" d="M105.4,504.32c-2.45-0.05-4.73-1.05-6.42-2.82s-2.6-4.09-2.55-6.54c0.1-4.95,4.21-8.97,9.16-8.97l0.2,0
		c2.45,0.05,4.73,1.05,6.42,2.82c1.69,1.77,2.6,4.09,2.55,6.54c-0.1,4.95-4.21,8.97-9.16,8.97L105.4,504.32z"/>
	<path class="st1" d="M105.59,486.49L105.59,486.49l0.19,0c2.31,0.05,4.47,1,6.07,2.67c1.6,1.67,2.46,3.87,2.41,6.18
		c-0.1,4.68-3.98,8.48-8.66,8.48l-0.19,0c-2.31-0.05-4.47-1-6.07-2.67c-1.6-1.67-2.46-3.87-2.41-6.18
		C97.03,490.3,100.91,486.49,105.59,486.49 M105.59,485.49c-5.24,0-9.55,4.19-9.66,9.46c-0.11,5.34,4.12,9.75,9.46,9.87
		c0.07,0,0.14,0,0.21,0c5.24,0,9.55-4.19,9.66-9.46c0.11-5.34-4.12-9.75-9.46-9.87C105.73,485.49,105.66,485.49,105.59,485.49
		L105.59,485.49z"/>
</g>
<g>
	<path class="st1" d="M27.35,426.73c-2.45-0.05-4.73-1.05-6.42-2.82c-1.69-1.77-2.6-4.09-2.55-6.54c0.1-4.95,4.21-8.97,9.16-8.97
		l0.2,0c5.05,0.11,9.08,4.3,8.97,9.36c-0.1,4.95-4.21,8.97-9.16,8.97L27.35,426.73z"/>
	<path class="st1" d="M27.54,408.9L27.54,408.9l0.19,0c2.31,0.05,4.47,1,6.07,2.67c1.6,1.67,2.46,3.87,2.41,6.18
		c-0.1,4.68-3.98,8.48-8.66,8.48l-0.19,0c-4.78-0.1-8.58-4.07-8.48-8.85C18.98,412.71,22.86,408.9,27.54,408.9 M27.54,407.9
		c-5.24,0-9.55,4.19-9.66,9.46c-0.11,5.34,4.12,9.75,9.46,9.87c0.07,0,0.14,0,0.21,0c5.24,0,9.55-4.19,9.66-9.46
		c0.11-5.34-4.12-9.75-9.46-9.87C27.68,407.9,27.61,407.9,27.54,407.9L27.54,407.9z"/>
</g>
<g>
	<path class="st1" d="M101.98,659.8c-2.45-0.05-4.73-1.05-6.42-2.82c-1.69-1.77-2.6-4.09-2.55-6.54c0.1-4.95,4.21-8.97,9.16-8.97
		l0.2,0c5.05,0.11,9.08,4.3,8.97,9.36c-0.1,4.95-4.21,8.97-9.16,8.97L101.98,659.8z"/>
	<path class="st1" d="M102.17,641.97L102.17,641.97l0.19,0c2.31,0.05,4.47,1,6.07,2.67c1.6,1.67,2.46,3.87,2.41,6.18
		c-0.1,4.68-3.98,8.48-8.66,8.48l-0.19,0c-2.31-0.05-4.47-1-6.07-2.67c-1.6-1.67-2.46-3.87-2.41-6.18
		C93.61,645.78,97.5,641.97,102.17,641.97 M102.17,640.97c-5.24,0-9.55,4.19-9.66,9.46c-0.11,5.34,4.12,9.75,9.46,9.87
		c0.07,0,0.14,0,0.21,0c5.24,0,9.55-4.19,9.66-9.46c0.11-5.34-4.12-9.75-9.46-9.87C102.31,640.97,102.24,640.97,102.17,640.97
		L102.17,640.97z"/>
</g>
<g>
	<path class="st1" d="M23.93,582.21c-5.05-0.11-9.08-4.3-8.97-9.36c0.1-4.95,4.21-8.97,9.16-8.97l0.2,0
		c5.05,0.11,9.08,4.3,8.97,9.36c-0.1,4.95-4.21,8.97-9.16,8.97L23.93,582.21z"/>
	<path class="st1" d="M24.12,563.38v1l0.19,0c2.31,0.05,4.47,1,6.07,2.67c1.6,1.67,2.46,3.87,2.41,6.18
		c-0.1,4.68-3.98,8.48-8.66,8.48l-0.19,0c-2.31-0.05-4.47-1-6.07-2.67c-1.6-1.67-2.46-3.87-2.41-6.18c0.1-4.68,3.98-8.48,8.66-8.48
		L24.12,563.38 M24.12,563.38c-5.24,0-9.55,4.19-9.66,9.46c-0.11,5.34,4.12,9.75,9.46,9.87c0.07,0,0.14,0,0.21,0
		c5.24,0,9.55-4.19,9.66-9.46c0.11-5.34-4.12-9.75-9.46-9.87C24.26,563.38,24.19,563.38,24.12,563.38L24.12,563.38z"/>
</g>
<g>
	<path class="st1" d="M20.51,737.69c-2.45-0.05-4.73-1.05-6.42-2.82c-1.69-1.77-2.6-4.09-2.55-6.54c0.1-4.95,4.21-8.97,9.16-8.97
		l0.2,0c5.05,0.11,9.08,4.3,8.97,9.36c-0.1,4.95-4.21,8.97-9.16,8.97L20.51,737.69z"/>
	<path class="st1" d="M20.7,719.86L20.7,719.86l0.19,0c2.31,0.05,4.47,1,6.07,2.67c1.6,1.67,2.46,3.87,2.41,6.18
		c-0.1,4.68-3.98,8.48-8.66,8.48l-0.19,0c-2.31-0.05-4.47-1-6.07-2.67c-1.6-1.67-2.46-3.87-2.41-6.18
		C12.14,723.67,16.03,719.86,20.7,719.86 M20.7,718.86c-5.24,0-9.55,4.19-9.66,9.46c-0.11,5.34,4.12,9.75,9.46,9.87
		c0.07,0,0.14,0,0.21,0c5.24,0,9.55-4.19,9.66-9.46c0.11-5.34-4.12-9.75-9.46-9.87C20.84,718.86,20.77,718.86,20.7,718.86
		L20.7,718.86z"/>
</g>
<line class="st0" x1="27.76" y1="734.53" x2="92.91" y2="799.62"/>
<line class="st0" x1="15.06" y1="735.3" x2="-50.03" y2="800.45"/>
</svg>
